<?xml version="1.0" standalone="no"?>
<!DOCTYPE svg PUBLIC "-//W3C//DTD SVG 20010904//EN"
 "http://www.w3.org/TR/2001/REC-SVG-20010904/DTD/svg10.dtd">
<svg version="1.0" xmlns="http://www.w3.org/2000/svg"
 width="512.000000pt" height="512.000000pt" viewBox="0 0 512.000000 512.000000"
 preserveAspectRatio="xMidYMid meet">
<metadata>
Created by potrace 1.14, written by Peter Selinger 2001-2017
</metadata>
<g transform="translate(0.000000,512.000000) scale(0.100000,-0.100000)"
fill="#000000" stroke="none">
<path d="M2508 4908 c-8 -21 2 -38 21 -38 21 0 54 33 44 43 -11 12 -61 8 -65
-5z"/>
<path d="M2593 4893 c-19 -7 -16 -50 3 -57 22 -9 34 1 34 29 0 24 -16 35 -37
28z"/>
<path d="M2029 4840 c-57 -10 -101 -32 -126 -63 -15 -20 -30 -25 -79 -29 -79
-5 -120 -35 -149 -105 -1 -2 -25 6 -53 17 -69 26 -191 27 -247 1 -71 -32 -125
-104 -125 -167 0 -6 -16 -14 -36 -17 -80 -13 -151 -106 -179 -232 -8 -38 -19
-119 -24 -180 -8 -101 -11 -115 -44 -169 -77 -125 -57 -280 42 -339 39 -23 95
-22 167 4 32 11 66 23 76 25 39 13 41 -2 83 -721 21 -347 32 -1316 16 -1438
-8 -73 -8 -94 3 -115 17 -33 51 -64 91 -85 17 -9 26 -16 20 -17 -20 0 -115 61
-129 83 -12 18 -15 136 -19 682 -5 634 -11 780 -51 1377 -6 103 -15 190 -18
193 -3 4 -17 -5 -31 -19 l-25 -25 9 -276 c4 -151 13 -378 19 -503 5 -125 15
-516 20 -870 l11 -644 -46 -71 -47 -72 7 -75 c5 -61 2 -88 -16 -145 -26 -83
-27 -160 -4 -210 58 -120 276 -270 500 -343 211 -69 419 -101 716 -109 260 -7
443 6 654 48 327 65 563 173 701 321 70 76 95 127 101 203 6 69 -19 252 -47
349 -10 36 -18 66 -17 67 1 0 90 2 197 4 223 3 308 20 415 80 79 44 183 154
224 237 45 91 55 191 47 483 -14 563 -102 1129 -208 1338 -53 107 -134 175
-243 206 -22 6 -116 18 -210 26 -227 20 -303 33 -326 56 -16 16 -19 35 -19
137 0 64 -5 135 -10 157 -6 22 -14 82 -19 134 -10 92 -10 95 -53 138 l-42 43
-1 108 c0 87 -4 113 -18 135 -23 36 -72 66 -120 74 -28 4 -41 12 -48 30 -31
82 -105 127 -199 121 -40 -2 -64 2 -81 14 -68 44 -199 51 -269 15 l-45 -23
-55 37 c-31 20 -74 42 -95 48 -52 14 -150 14 -190 -1 -29 -10 -36 -8 -66 14
-64 49 -194 74 -290 58z m235 -99 c52 -25 57 -29 33 -30 -43 -1 -23 -18 29
-24 25 -2 59 -14 75 -26 32 -24 37 -17 13 17 -23 33 -10 42 59 41 89 -1 131
-17 50 -18 -68 -1 -96 -16 -30 -17 53 0 157 -11 164 -17 2 -3 -9 -8 -26 -12
-17 -4 -31 -10 -31 -15 0 -4 10 -6 23 -3 22 5 22 5 2 -12 l-20 -17 20 7 c11 4
43 9 71 12 59 6 76 -7 48 -38 -19 -22 -16 -23 21 -9 24 9 25 11 10 33 -14 22
-14 25 1 38 25 20 142 24 184 6 34 -15 34 -15 8 -16 -15 -1 -30 -5 -33 -11 -4
-6 35 -10 110 -10 124 0 160 -10 189 -52 21 -30 21 -34 -13 -48 -16 -6 -32
-19 -35 -27 -5 -12 -2 -13 11 -7 35 16 129 16 166 0 65 -27 94 -104 63 -164
-49 -93 -169 -154 -426 -218 -320 -79 -364 -85 -661 -91 -147 -3 -293 -2 -325
2 l-59 8 35 14 c56 24 89 52 111 95 28 56 21 68 -43 68 -76 0 -179 -17 -192
-31 -8 -9 -5 -10 14 -6 63 15 204 27 212 19 9 -9 -37 -56 -92 -95 -24 -17 -24
-17 10 -1 19 9 43 23 53 32 9 8 17 11 17 5 0 -26 -93 -78 -155 -87 l-40 -6 43
16 c24 9 42 18 40 19 -4 4 -105 -19 -130 -30 -18 -7 -139 15 -253 46 -109 30
-184 22 -232 -23 -43 -40 -55 -85 -62 -223 -5 -100 -10 -137 -24 -158 -29 -44
-73 -61 -161 -61 l-80 -1 -20 35 c-35 59 -29 129 22 234 28 60 42 102 42 130
0 22 6 53 14 68 11 22 12 28 1 32 -11 4 -11 17 0 74 28 144 90 224 184 235 37
4 64 2 89 -8 53 -23 51 -9 -2 17 -44 21 -46 24 -40 53 19 90 66 125 167 125
68 0 98 -10 155 -52 15 -11 18 -18 10 -21 -7 -3 6 -6 30 -6 47 -1 74 -12 110
-44 12 -12 22 -15 22 -9 0 7 -20 27 -45 44 -53 38 -59 70 -20 116 18 22 41 33
96 46 39 10 82 15 95 12 25 -7 31 3 14 20 -8 8 -6 15 4 24 61 50 208 50 310 1z
m419 -98 c-7 -2 -19 -2 -25 0 -7 3 -2 5 12 5 14 0 19 -2 13 -5z m781 -482 c9
-16 26 -37 38 -45 23 -17 23 -17 38 -176 16 -187 15 -303 -5 -334 -22 -33 -29
-28 -15 8 5 15 10 60 10 101 0 72 -1 74 -32 96 -42 28 -58 48 -58 71 0 18 2
18 22 4 41 -29 48 -21 48 55 0 67 -2 73 -39 117 -46 57 -54 77 -40 104 6 11 9
21 7 23 -2 1 -43 -22 -93 -51 -118 -71 -362 -149 -619 -199 -303 -57 -820 -38
-1066 41 -25 8 -93 25 -150 39 l-105 25 69 -5 c82 -5 79 6 -7 21 l-62 12 56 1
c31 0 78 -6 105 -14 180 -56 387 -80 694 -79 294 1 432 19 725 94 235 61 311
90 389 150 l61 47 7 -38 c4 -20 14 -51 22 -68z m-80 -67 c3 -9 6 -46 7 -82 0
-37 6 -124 12 -194 l12 -127 -64 -42 c-82 -54 -260 -129 -398 -168 -60 -17
-114 -31 -121 -31 -7 0 -12 16 -12 43 l0 42 110 1 c61 0 115 5 120 10 6 6 -36
8 -115 6 l-125 -4 0 53 c0 30 -7 101 -15 159 -23 165 -25 157 43 170 172 34
446 123 503 164 29 20 35 20 43 0z m-1924 -84 c30 -6 91 -21 136 -35 301 -92
712 -117 1111 -69 l52 7 5 -34 c15 -100 35 -324 28 -330 -4 -4 -32 -12 -62
-18 l-55 -10 63 4 63 5 -3 -48 -3 -47 -80 -18 c-199 -43 -474 -59 -670 -37
-221 25 -500 103 -632 177 -89 49 -86 57 5 17 42 -19 88 -34 102 -33 17 0 4 8
-40 26 -36 14 -83 38 -105 53 l-40 26 0 166 c1 141 3 169 18 192 12 18 24 25
35 22 9 -3 42 -10 72 -16z m2020 -334 c0 -13 7 -43 15 -67 15 -42 15 -45 -5
-58 -30 -20 -89 -116 -111 -180 -25 -71 -24 -81 6 -81 15 0 25 -6 25 -14 0
-39 -64 -27 -86 15 -26 50 2 114 91 209 34 36 44 55 49 92 3 26 2 58 -3 70 -4
13 -6 29 -4 36 7 19 23 4 23 -22z m114 -111 c34 -45 56 -50 316 -80 185 -21
310 -46 310 -61 0 -13 -48 -68 -70 -80 -20 -10 -21 -13 -7 -14 10 0 29 -11 43
-25 l25 -25 -23 -23 c-13 -13 -32 -26 -42 -30 -10 -4 -16 -10 -13 -13 9 -9
-23 -38 -44 -41 -11 -2 -19 1 -19 7 0 5 -7 7 -15 4 -10 -4 -15 0 -15 14 0 21
-62 82 -83 82 -7 -1 -2 -9 11 -19 12 -11 22 -25 22 -32 0 -7 -12 -2 -27 13
-38 35 -93 63 -79 40 3 -5 -27 -3 -67 4 -40 7 -141 16 -225 20 -84 4 -155 11
-158 16 -4 6 54 7 147 3 85 -4 152 -5 149 -2 -3 3 -61 11 -130 17 -69 7 -131
16 -139 20 -8 4 30 8 85 9 111 2 142 10 43 12 -35 1 -75 5 -89 9 -23 7 -23 8
10 10 l35 2 -45 13 -45 13 100 2 100 3 -70 12 -70 13 50 2 c58 2 99 15 75 23
-8 3 -36 8 -62 12 -53 7 -59 16 -25 40 l22 17 -27 -5 c-33 -5 -33 -4 -12 28
21 33 27 32 58 -10z m-2081 -95 c50 -17 66 -27 62 -37 -3 -8 -5 -35 -5 -59 0
-41 -2 -44 -28 -44 -43 0 -161 36 -182 55 -16 15 -20 31 -20 91 l0 72 53 -28
c28 -15 83 -38 120 -50z m1635 -23 c12 -25 26 -80 32 -132 6 -50 14 -104 18
-122 l7 -32 44 20 c24 10 46 18 47 16 2 -2 -19 -14 -46 -27 -35 -16 -49 -28
-46 -39 10 -37 17 -94 26 -221 5 -74 16 -184 24 -245 8 -60 18 -135 21 -165 3
-30 10 -93 15 -140 5 -47 17 -204 25 -350 8 -146 18 -296 21 -333 7 -67 7 -68
32 -62 15 4 28 1 32 -6 6 -9 16 -9 41 0 39 13 154 4 169 -14 8 -9 1 -21 -25
-44 -41 -36 -65 -38 -170 -16 -38 8 -70 15 -70 15 -1 0 -1 -59 0 -131 l0 -131
-33 -29 c-18 -16 -39 -29 -47 -29 -8 0 -19 -16 -25 -39 -11 -43 -37 -59 -162
-100 -80 -27 -94 -41 -41 -42 34 -1 35 -2 13 -9 -14 -4 -42 -8 -62 -9 -20 -1
-40 -5 -43 -11 -4 -6 21 -11 67 -11 l73 -2 -65 -10 c-36 -6 -71 -17 -79 -24
-11 -12 -3 -13 55 -8 38 4 80 8 94 11 19 4 22 2 10 -6 -8 -5 -40 -10 -70 -10
-51 -1 -53 -2 -36 -15 11 -8 29 -16 40 -16 21 -1 -7 -7 -151 -28 -40 -6 -167
-14 -283 -17 l-210 -7 0 37 c0 29 4 36 20 36 13 0 20 -7 20 -20 0 -11 5 -20
10 -20 6 0 10 8 10 19 0 28 36 33 54 7 l15 -21 0 23 c1 15 7 22 21 22 11 0 20
-7 20 -15 0 -8 5 -15 10 -15 6 0 10 7 10 15 0 18 41 20 58 3 8 -8 12 -8 12 -1
0 6 21 11 53 11 165 0 198 2 191 13 -3 6 -17 8 -31 5 -26 -7 -67 20 -41 28 7
2 41 12 76 21 l62 18 0 44 c0 23 -1 43 -2 43 -2 0 -28 -7 -58 -15 -62 -17
-334 -32 -310 -17 8 5 59 12 112 16 108 7 189 20 231 38 26 10 28 15 22 42 -4
17 -9 215 -11 440 -4 355 -7 411 -20 421 -14 10 -14 12 0 24 30 25 19 39 -29
39 -31 0 -45 -4 -45 -13 0 -20 19 -28 34 -15 16 13 26 -4 18 -33 -3 -12 -10
-16 -23 -12 -13 5 -22 -1 -30 -17 -5 -13 -20 -28 -32 -33 -27 -12 -34 -45 -13
-61 14 -10 15 -13 1 -24 -8 -7 -15 -19 -15 -27 0 -8 -5 -11 -11 -7 -6 3 -9 28
-7 58 3 46 1 51 -19 54 -16 2 -23 -2 -23 -12 0 -9 5 -16 10 -16 13 0 13 -37 0
-45 -6 -4 -7 -13 -1 -23 14 -27 -1 -88 -19 -77 -5 3 -7 30 -4 61 5 51 4 56
-13 52 -14 -3 -19 -16 -24 -68 -3 -36 -6 -53 -7 -38 -1 15 -10 32 -19 37 -10
6 -12 11 -5 11 6 0 12 10 12 23 0 19 -5 22 -45 23 -36 1 -45 -2 -45 -16 0 -10
8 -21 18 -25 16 -6 16 -7 0 -19 -9 -7 -16 -21 -15 -32 1 -13 -8 -24 -30 -33
-33 -14 -52 -51 -27 -51 8 0 11 -6 7 -16 -12 -31 -33 16 -33 73 0 53 -4 58
-34 47 -13 -5 -14 -9 -5 -21 9 -10 9 -17 1 -25 -14 -14 -19 10 -27 137 -3 55
-14 159 -25 230 -10 72 -26 189 -35 260 -9 72 -23 176 -31 232 -8 56 -14 144
-15 197 -1 88 -8 113 -24 86 -5 -8 -14 -691 -15 -1057 0 -36 -2 -41 -20 -36
-13 4 -20 0 -20 -10 0 -8 9 -17 20 -20 29 -8 24 -27 -7 -28 -69 -2 -78 -5 -78
-19 0 -9 10 -15 25 -16 70 -3 80 -5 80 -13 0 -13 -50 -10 -51 3 0 6 -4 1 -9
-12 -6 -13 -18 -22 -31 -22 -12 0 -19 -5 -16 -12 2 -7 14 -13 26 -12 14 0 21
-5 21 -18 0 -10 -5 -18 -12 -18 -6 0 -22 -10 -34 -21 l-23 -21 6 21 c4 15 1
21 -10 21 -9 0 -19 -5 -22 -10 -4 -7 -14 -6 -28 1 -16 9 -22 9 -25 0 -2 -6
-11 -11 -19 -11 -12 0 -13 3 -4 14 9 11 8 15 -5 20 -26 10 -156 7 -149 -3 3
-6 -23 -10 -65 -9 -63 0 -70 2 -70 20 0 15 5 19 18 15 9 -2 23 -6 31 -8 8 -2
16 4 19 13 2 13 -5 17 -30 20 l-33 3 0 450 c-1 369 -4 468 -17 550 -9 55 -20
138 -23 185 -8 106 -31 271 -51 370 -9 43 -13 93 -9 117 l6 42 37 -13 c20 -7
74 -21 120 -31 53 -12 82 -23 82 -31 0 -16 16 -18 25 -4 5 8 11 8 19 1 7 -6
23 -10 37 -9 60 4 129 -3 129 -12 0 -7 -18 -8 -51 -4 -42 6 -51 4 -47 -7 3 -9
27 -16 69 -20 l64 -6 -70 -1 c-53 -2 -66 -5 -57 -14 14 -14 241 -25 269 -13
16 7 15 9 -7 15 l-25 8 28 1 c21 1 27 6 27 24 0 19 6 22 50 25 l50 3 1 -38 2
-38 6 39 c6 36 8 39 46 42 22 2 66 6 97 9 35 3 59 1 63 -5 5 -8 11 -6 18 3 7
9 35 20 62 25 28 6 58 14 68 17 14 6 17 1 17 -25 0 -28 2 -31 15 -20 9 7 14
22 13 34 -3 21 -6 20 121 51 23 6 23 5 17 -39 -8 -48 4 -66 30 -45 24 20 33
-4 28 -82 l-4 -68 27 -3 c21 -2 29 -9 31 -28 3 -20 1 -23 -9 -12 -23 21 -49
15 -49 -13 0 -21 5 -25 30 -25 23 0 30 -5 30 -19 0 -14 -6 -17 -24 -14 -26 5
-41 -10 -32 -32 4 -11 11 -13 31 -5 22 8 25 7 25 -13 0 -18 -5 -23 -27 -22
-23 0 -29 -5 -31 -27 -3 -26 -1 -27 27 -22 24 5 31 3 31 -10 0 -18 -22 -21
-51 -6 -24 13 -54 -1 -62 -30 -7 -27 17 -37 40 -19 14 12 16 12 8 0 -6 -11 -2
-13 18 -9 32 6 48 -21 17 -29 -11 -3 -28 -21 -36 -40 -10 -19 -22 -32 -29 -29
-14 5 -28 -31 -18 -47 3 -5 14 -7 24 -4 11 3 19 1 19 -4 0 -5 -9 -9 -19 -9
-11 0 -22 -8 -25 -17 -10 -33 2 -1325 13 -1388 6 -33 14 -99 17 -148 4 -48 10
-87 13 -87 12 0 157 48 184 60 20 10 27 20 27 42 0 24 -4 28 -27 29 -21 1 -23
3 -8 6 53 12 88 27 115 50 l30 25 0 143 c0 173 -40 747 -74 1055 -14 124 -32
304 -41 400 -9 96 -22 216 -30 265 -7 50 -17 122 -21 160 -7 77 -24 119 -54
138 -25 15 -26 27 -2 27 12 0 26 -16 40 -43z m449 27 c-3 -3 -12 -4 -19 -1 -8
3 -5 6 6 6 11 1 17 -2 13 -5z m-577 -65 c0 -16 -4 -29 -10 -29 -5 0 -10 16
-10 36 0 21 4 33 10 29 6 -3 10 -19 10 -36z m-1490 -108 l45 -10 -55 3 c-56 4
-170 41 -170 55 0 5 30 -2 68 -15 37 -12 87 -27 112 -33z m646 28 c4 -8 9 -7
15 2 7 12 9 12 9 0 0 -10 3 -11 14 -2 11 9 15 9 18 0 3 -9 9 -8 25 1 22 14 53
8 53 -10 0 -16 -162 -9 -168 8 -5 15 24 16 34 1z m-741 -46 l40 -13 -37 5
c-22 4 -38 2 -38 -4 0 -12 102 -25 140 -17 l29 5 1 -695 c0 -383 3 -701 6
-706 3 -5 3 -20 0 -34 -7 -24 -39 -34 -51 -14 -3 6 -15 10 -26 10 -26 0 -24
26 2 33 26 7 22 44 -5 39 -12 -2 -17 2 -14 15 2 10 10 18 18 18 8 0 17 11 18
24 3 18 0 22 -12 18 -9 -4 -19 1 -25 10 -8 14 -12 15 -25 4 -14 -12 -16 -10
-16 14 0 24 2 26 16 14 12 -10 17 -10 23 -1 4 7 15 10 25 6 14 -5 17 -3 15 11
-4 20 -59 31 -70 13 -4 -6 -10 52 -13 128 -17 358 -29 530 -38 541 -8 10 -47
483 -48 581 0 31 1 32 23 21 12 -7 40 -19 62 -26z m2035 -18 c0 -8 -9 -15 -20
-15 -11 0 -20 7 -20 15 0 8 9 15 20 15 11 0 20 -7 20 -15z m50 0 c0 -8 -7 -15
-15 -15 -8 0 -15 7 -15 15 0 8 7 15 15 15 8 0 15 -7 15 -15z m60 0 c0 -8 -9
-15 -20 -15 -11 0 -20 7 -20 15 0 8 9 15 20 15 11 0 20 -7 20 -15z m60 0 c0
-8 -9 -15 -20 -15 -11 0 -20 7 -20 15 0 8 9 15 20 15 11 0 20 -7 20 -15z m50
0 c0 -8 -7 -15 -15 -15 -8 0 -15 7 -15 15 0 8 7 15 15 15 8 0 15 -7 15 -15z
m45 -3 c0 -18 -20 -15 -23 4 -3 10 1 15 10 12 7 -3 13 -10 13 -16z m-2212 1
c-7 -2 -21 -2 -30 0 -10 3 -4 5 12 5 17 0 24 -2 18 -5z m2276 -2 c7 -5 10 -14
7 -20 -8 -13 -46 3 -46 19 0 12 20 13 39 1z m66 -7 c9 -9 14 -18 11 -21 -7 -7
-46 16 -46 27 0 15 17 12 35 -6z m-785 -4 c0 -13 -11 -13 -30 0 -12 8 -11 10
8 10 12 0 22 -4 22 -10z m856 -5 c16 -12 16 -14 3 -15 -9 0 -22 7 -29 15 -16
19 0 19 26 0z m358 -20 c-7 -18 7 -20 24 -3 15 15 15 3 0 -25 -10 -19 -9 -20
4 -9 14 11 15 7 11 -30 -3 -26 4 -80 16 -133 27 -111 96 -552 116 -735 8 -74
22 -196 31 -270 9 -74 17 -214 18 -310 l1 -175 -33 -68 c-35 -70 -54 -88 -28
-26 8 19 20 63 27 98 13 68 9 138 -31 476 -11 88 -22 198 -25 245 -9 117 -54
519 -64 572 l-9 43 -1 -37 c-1 -21 8 -118 19 -215 36 -326 90 -897 90 -950 0
-62 -16 -144 -33 -167 -10 -13 -11 -6 -9 36 2 29 -1 71 -6 93 l-9 40 -11 -53
c-23 -104 -78 -175 -145 -187 -49 -9 -335 0 -473 15 -98 11 -127 11 -152 1
-28 -12 -104 -97 -130 -147 -11 -21 -9 -22 56 -27 37 -3 210 -4 385 -3 175 2
316 1 314 -1 -30 -30 -458 -52 -699 -36 -144 9 -138 13 -138 -70 0 -37 3 -48
10 -37 8 12 10 9 10 -13 0 -15 6 -43 14 -61 25 -59 69 -52 169 27 33 26 38 35
35 63 -4 30 -2 32 24 32 26 -1 26 -2 13 -27 -49 -92 -230 -246 -385 -326 -57
-29 -30 -7 47 40 83 50 166 115 159 122 -3 3 -51 -24 -108 -59 -57 -36 -137
-83 -178 -105 -41 -22 -104 -56 -140 -75 -109 -59 -374 -132 -421 -116 -8 3
22 10 66 17 151 24 253 59 400 139 141 76 223 131 178 120 l-22 -6 26 57 c14
31 30 70 36 86 5 17 16 46 23 65 7 19 18 59 24 88 5 30 24 74 41 99 17 25 37
68 45 95 7 28 14 51 16 52 2 2 31 22 66 45 l63 42 62 -20 c95 -31 178 -41 352
-41 183 0 219 7 263 52 50 52 62 102 62 252 0 127 -7 210 -50 636 -37 365 -82
570 -145 670 l-22 35 50 45 c42 38 96 80 104 80 1 0 0 -7 -3 -15z m-2594 -350
c11 -104 22 -260 24 -345 l5 -155 -10 110 c-14 149 -28 168 -29 38 0 -62 -4
-103 -10 -103 -5 0 -10 6 -10 13 0 6 -5 95 -11 197 -7 114 -8 260 -3 380 9
217 6 228 44 -135z m2065 295 c105 -12 206 -25 225 -30 139 -38 191 -158 244
-571 50 -385 84 -835 70 -928 -4 -27 -17 -56 -34 -75 l-28 -31 -128 -3 c-136
-4 -344 12 -375 29 -45 24 -58 89 -115 589 -20 179 -27 300 -32 591 l-8 366
-27 36 c-33 44 -35 62 -4 53 12 -3 108 -15 212 -26z m-298 -102 c-2 -13 -4 -3
-4 22 0 25 2 35 4 23 2 -13 2 -33 0 -45z m23 -363 c17 -351 50 -693 94 -980 8
-49 13 -92 11 -93 -2 -2 -11 8 -20 22 -31 47 -93 754 -99 1131 -5 258 -1 241
14 -80z m-415 105 c-2 -28 -9 -32 -40 -20 -31 12 -25 26 15 33 14 2 25 5 26 6
0 0 0 -8 -1 -19z m8 -75 c1 -5 -13 -11 -30 -13 -31 -3 -42 6 -26 22 10 10 53
3 56 -9z m-13 -133 c0 -4 -5 -13 -12 -20 -16 -16 -29 -15 -25 1 4 20 37 38 37
19z m-176 -597 c-7 -16 -44 -21 -44 -6 0 8 16 16 42 20 4 0 5 -6 2 -14z m-50
-46 c-5 -8 2 -10 23 -7 30 4 30 4 32 -49 1 -50 0 -53 -23 -53 -14 0 -28 5 -31
10 -5 8 -11 7 -21 -1 -8 -6 -17 -9 -21 -5 -3 3 -1 6 6 6 7 0 9 5 6 10 -7 11 4
13 48 10 21 -1 27 3 27 20 0 17 -5 20 -26 18 -20 -2 -27 2 -30 16 -3 20 3 36
12 36 3 0 2 -5 -2 -11z m-1117 -96 c-2 -16 -4 -3 -4 27 0 30 2 43 4 28 2 -16
2 -40 0 -55z m-280 45 c-3 -8 -6 -5 -6 6 -1 11 2 17 5 13 3 -3 4 -12 1 -19z
m8 -67 c3 -5 1 -12 -5 -16 -5 -3 -10 1 -10 9 0 18 6 21 15 7z m281 -71 c1 -28
-3 -50 -7 -50 -5 0 -9 23 -9 50 0 65 15 65 16 0z m-156 -15 c0 -19 -5 -25 -22
-25 -38 0 -68 12 -68 25 0 15 20 22 63 24 22 1 27 -3 27 -24z m-133 -7 c-3 -8
-6 -5 -6 6 -1 11 2 17 5 13 3 -3 4 -12 1 -19z m2003 12 c0 -5 -5 -10 -11 -10
-5 0 -7 5 -4 10 3 6 8 10 11 10 2 0 4 -4 4 -10z m-345 -20 c3 -5 -1 -10 -10
-10 -9 0 -13 5 -10 10 3 6 8 10 10 10 2 0 7 -4 10 -10z m-658 -32 c-3 -7 -5
-2 -5 12 0 14 2 19 5 13 2 -7 2 -19 0 -25z m-707 -34 c0 -13 -4 -24 -10 -24
-5 0 -10 14 -10 31 0 17 4 28 10 24 6 -3 10 -17 10 -31z m1033 29 c-13 -2 -35
-2 -50 0 -16 2 -5 4 22 4 28 0 40 -2 28 -4z m-1268 -13 c3 -5 1 -10 -4 -10 -6
0 -11 5 -11 10 0 6 2 10 4 10 3 0 8 -4 11 -10z m75 -15 c0 -21 -5 -25 -30 -25
-25 0 -30 4 -30 25 0 21 5 25 30 25 25 0 30 -4 30 -25z m925 4 c-6 -9 8 -13
34 -10 7 2 10 -2 6 -8 -3 -6 -17 -11 -31 -11 -19 0 -24 5 -24 26 0 14 4 23 10
19 6 -4 8 -11 5 -16z m-225 -7 c0 -14 -11 -21 -26 -15 -21 8 -17 23 6 23 11 0
20 -4 20 -8z m508 -9 c-10 -2 -26 -2 -35 0 -10 3 -2 5 17 5 19 0 27 -2 18 -5z
m-1213 -44 c13 -13 -9 -32 -31 -27 -11 2 -20 13 -22 27 -3 20 -1 22 20 16 13
-4 27 -11 33 -16z m235 -55 c41 0 93 -5 115 -11 47 -11 76 -7 54 9 -9 6 1 7
31 3 25 -4 84 -6 132 -5 56 0 89 -3 93 -11 12 -19 -12 -25 -68 -19 -28 3 -74
4 -100 2 -40 -3 -50 -8 -57 -28 -9 -24 -15 -26 -65 -26 -39 0 -45 1 -45 10 0
5 20 7 45 5 35 -3 47 0 52 13 7 18 -15 36 -32 26 -13 -9 -125 -9 -125 0 0 4
-13 3 -30 -2 -21 -6 -34 -5 -43 4 -18 18 -37 8 -37 -20 0 -25 10 -29 75 -26
29 2 29 1 8 -10 -13 -6 -23 -17 -23 -25 0 -8 -7 -6 -21 8 -24 24 -26 23 -31
-11 l-3 -25 102 -1 c93 -1 102 1 112 20 11 20 11 20 5 -2 -5 -20 -3 -23 18
-20 15 2 23 9 22 20 -1 10 2 15 7 12 5 -3 9 -11 9 -19 0 -11 18 -14 78 -14
114 0 122 0 122 -10 0 -5 -15 -9 -32 -9 -107 0 -265 -8 -275 -15 -7 -5 -13 -5
-13 0 0 4 -38 8 -85 8 l-85 0 1 120 c1 66 4 104 8 85 l6 -35 75 -1z m-20 51
c0 -8 -7 -15 -15 -15 -8 0 -15 7 -15 15 0 8 7 15 15 15 8 0 15 -7 15 -15z m60
-12 c0 -22 -2 -25 -10 -13 -13 20 -13 40 0 40 6 0 10 -12 10 -27z m230 2 c0
-11 -11 -15 -36 -15 -23 0 -33 4 -28 11 3 6 15 9 25 6 10 -3 22 -1 25 4 8 13
14 11 14 -6z m-80 -4 c0 -5 -21 -6 -47 -4 -71 7 -75 11 -10 12 31 1 57 -3 57
-8z m-383 -143 c-2 -24 -4 -5 -4 42 0 47 2 66 4 43 2 -24 2 -62 0 -85z m-47
92 c0 -13 -7 -20 -19 -20 -22 0 -35 15 -26 30 12 19 45 11 45 -10z m0 -66 c0
-9 -5 -14 -12 -12 -18 6 -21 28 -4 28 9 0 16 -7 16 -16z m485 6 c-3 -5 -12
-10 -18 -10 -7 0 -6 4 3 10 19 12 23 12 15 0z m135 -24 c0 -3 -4 -8 -10 -11
-5 -3 -10 -1 -10 4 0 6 5 11 10 11 6 0 10 -2 10 -4z m1280 -6 c0 -5 -10 -15
-22 -21 -23 -12 -23 -12 -4 10 21 23 26 26 26 11z m-1937 -7 c-7 -2 -19 -2
-25 0 -7 3 -2 5 12 5 14 0 19 -2 13 -5z m40 -40 c-7 -2 -21 -2 -30 0 -10 3 -4
5 12 5 17 0 24 -2 18 -5z m2477 -10 c141 -5 194 -9 170 -15 -51 -12 -404 -11
-475 2 -33 5 -77 10 -98 10 -26 0 -36 4 -31 11 5 9 39 10 118 5 61 -3 203 -9
316 -13z m-2200 -43 c0 -5 9 -10 20 -10 11 0 20 5 20 10 0 6 6 5 14 -2 22 -20
9 -28 -45 -28 -50 0 -59 6 -37 28 15 15 28 16 28 2z m2210 -1 c157 -1 150 -12
-20 -28 l-85 -8 90 -3 c74 -2 84 -4 55 -11 -39 -9 -459 -14 -468 -5 -3 3 60 7
139 7 l144 2 -94 8 c-103 9 -136 17 -81 19 l35 1 -30 15 c-28 13 -23 14 70 9
55 -3 165 -5 245 -6z m-2490 -8 c0 -11 -26 -22 -34 -14 -12 12 -5 23 14 23 11
0 20 -4 20 -9z m170 -5 c0 -3 -4 -8 -10 -11 -5 -3 -10 -1 -10 4 0 6 5 11 10
11 6 0 10 -2 10 -4z m167 -48 c6 -11 -136 -8 -167 2 -16 6 7 8 68 7 52 -1 96
-5 99 -9z m93 -7 c0 -5 -7 -11 -15 -15 -15 -5 -20 5 -8 17 9 10 23 9 23 -2z
m60 -11 c0 -13 -11 -13 -30 0 -12 8 -11 10 8 10 12 0 22 -4 22 -10z m-165 -24
c11 -2 -19 -4 -67 -5 -48 0 -89 3 -92 7 -4 7 111 6 159 -2z m-45 -127 c41 -17
93 -38 115 -46 50 -20 282 -29 345 -14 24 5 46 8 49 6 11 -12 -66 -27 -159
-32 -118 -6 -320 22 -417 59 -60 22 -113 62 -113 85 0 10 -6 12 -22 7 -30 -10
-117 -8 -148 4 -16 6 1 7 56 4 90 -5 124 6 124 40 0 18 8 13 48 -30 36 -40 64
-59 122 -83z m-361 -13 c16 -23 38 -63 50 -91 67 -154 168 -214 461 -276 140
-30 172 -33 330 -33 117 -1 215 5 295 16 129 19 141 20 134 14 -2 -3 -45 -10
-94 -16 -107 -14 -142 -34 -45 -26 l65 5 -45 -12 -45 -12 55 -3 c36 -2 94 7
170 26 63 16 117 28 118 27 12 -10 -192 -62 -363 -92 -176 -31 -214 -34 -315
-30 -212 10 -534 97 -730 197 -54 28 -60 44 -8 20 59 -27 96 -26 45 1 -22 11
-37 23 -34 26 3 2 15 0 26 -7 12 -6 21 -8 21 -6 0 3 -14 13 -31 22 -19 9 -28
11 -24 4 5 -8 3 -11 -6 -8 -8 3 -14 10 -14 16 0 5 -4 14 -9 19 -5 5 -6 2 -1
-6 5 -9 3 -12 -6 -9 -8 3 -13 11 -11 17 1 7 -2 9 -8 6 -6 -4 -19 0 -28 8 -9 8
-46 28 -82 45 -36 17 -80 46 -99 66 l-33 34 45 59 c24 32 56 71 71 86 l26 28
46 -37 c25 -21 58 -56 73 -78z m571 104 c0 -5 -4 -10 -10 -10 -5 0 -10 5 -10
10 0 6 5 10 10 10 6 0 10 -4 10 -10z m1088 -7 c-10 -2 -26 -2 -35 0 -10 3 -2
5 17 5 19 0 27 -2 18 -5z m-737 -106 c-10 -9 -11 -8 -5 6 3 10 9 15 12 12 3
-3 0 -11 -7 -18z m110 -6 l54 -9 -63 -1 c-40 -1 -61 3 -57 9 3 6 1 10 -4 10
-6 0 -11 5 -11 11 0 8 4 8 13 0 8 -6 38 -15 68 -20z m1194 -157 c31 -189 14
-272 -73 -357 l-38 -37 8 87 c8 78 7 89 -9 101 -15 10 -15 16 -5 32 19 32 15
43 -15 35 -25 -6 -26 -6 -11 17 8 12 26 25 39 29 l24 6 -27 8 c-30 8 -36 22
-14 31 8 3 17 13 20 21 5 13 4 14 -9 3 -26 -22 -16 1 29 64 24 33 47 72 52 86
l9 25 2 -30 c2 -16 10 -71 18 -121z m-1208 110 c-3 -3 -12 -4 -19 -1 -8 3 -5
6 6 6 11 1 17 -2 13 -5z m-136 -61 c13 -15 11 -16 -20 -10 -18 4 -41 8 -50 8
-13 1 17 11 50 18 4 0 13 -7 20 -16z m429 7 c0 -5 -10 -10 -22 -9 -22 0 -22 1
-3 9 11 5 21 9 23 9 1 1 2 -3 2 -9z m-610 -46 c0 -13 -21 -44 -30 -44 -6 0
-10 11 -10 25 0 18 5 25 20 25 11 0 20 -3 20 -6z m46 -16 c-3 -13 -6 -30 -7
-38 -1 -8 -5 -1 -8 15 -8 33 -5 45 11 45 6 0 8 -10 4 -22z m74 -12 c0 -38 -10
-49 -34 -40 -10 4 -16 18 -16 40 0 30 3 34 25 34 22 0 25 -4 25 -34z m52 -11
c2 -22 -2 -31 -14 -33 -14 -3 -18 4 -18 31 0 58 25 60 32 2z m-372 15 c0 -23
-16 -26 -36 -6 -20 20 -18 26 11 26 18 0 25 -5 25 -20z m1245 -40 c-10 -11
-22 -20 -26 -20 -4 0 2 11 14 24 12 14 24 23 26 20 2 -2 -4 -13 -14 -24z
m-1916 -6 c14 -12 -19 -1 -35 12 -18 14 -18 14 6 3 14 -6 27 -13 29 -15z m718
20 c-3 -3 -12 -4 -19 -1 -8 3 -5 6 6 6 11 1 17 -2 13 -5z m184 -34 c16 0 29
-4 29 -10 0 -5 -20 -10 -45 -10 -35 0 -45 4 -45 16 0 11 5 14 16 10 9 -3 29
-6 45 -6z m-76 -11 c4 -5 -23 -9 -64 -9 -39 0 -71 4 -71 9 0 6 29 10 65 10 35
0 67 -4 70 -10z m169 2 c7 -11 -14 -20 -31 -13 -7 2 -13 8 -13 13 0 12 37 12
44 0z m49 -6 c1 -5 -6 -11 -15 -13 -11 -2 -18 3 -18 13 0 17 30 18 33 0z m67
0 c0 -8 -7 -15 -15 -15 -8 0 -15 7 -15 15 0 8 7 15 15 15 8 0 15 -7 15 -15z
m70 6 c0 -9 -24 -21 -41 -21 -5 0 -9 7 -9 15 0 9 9 15 25 15 14 0 25 -4 25 -9z
m58 -9 c2 -7 -3 -12 -12 -12 -9 0 -16 7 -16 16 0 17 22 14 28 -4z m122 3 c0
-8 -4 -15 -10 -15 -5 0 -10 7 -10 15 0 8 5 15 10 15 6 0 10 -7 10 -15z m485
-5 c-3 -5 -12 -10 -18 -10 -7 0 -6 4 3 10 19 12 23 12 15 0z m225 -34 c-38
-35 -297 -190 -355 -213 -97 -37 -72 -39 41 -3 55 17 114 34 133 37 18 3 59
14 90 24 30 11 51 15 46 10 -23 -22 -146 -80 -217 -102 -74 -23 -99 -39 -60
-39 9 0 49 9 87 20 38 11 77 20 85 19 29 -1 -66 -36 -154 -57 -48 -11 -91 -23
-94 -26 -9 -10 49 -6 148 8 52 8 96 13 98 11 6 -5 -75 -45 -92 -45 -8 0 -16 5
-18 11 -2 7 -31 7 -93 -2 -122 -17 -135 -33 -20 -25 l90 6 -89 -29 c-48 -16
-93 -34 -99 -40 -17 -17 -2 -14 134 23 156 42 169 45 169 40 0 -16 -149 -66
-255 -85 -89 -16 -70 -23 26 -10 50 7 77 7 85 0 20 -16 98 -1 209 41 143 53
149 54 66 14 -254 -124 -852 -187 -1264 -134 -214 27 -459 92 -513 136 -18 14
-18 15 -1 10 58 -18 68 -14 22 9 -27 14 -42 23 -32 20 33 -9 149 -26 154 -22
2 3 -9 9 -24 14 -29 10 -173 100 -173 108 0 3 11 0 24 -5 14 -5 60 -11 103
-14 l78 -6 -71 24 c-84 28 -171 73 -178 92 -5 12 -1 12 22 0 27 -14 160 -37
205 -35 12 0 -26 17 -85 38 -95 33 -156 66 -144 78 2 3 18 -3 35 -11 16 -9 45
-16 63 -16 30 1 28 3 -37 35 -38 19 -59 32 -45 28 14 -4 37 -6 53 -5 15 0 67
-14 116 -33 85 -33 306 -93 421 -114 l55 -10 -50 4 c-272 22 -259 6 21 -25
300 -32 516 -26 764 24 114 23 206 54 184 63 -7 2 -49 -6 -95 -17 -100 -26
-310 -60 -359 -59 -19 1 33 11 115 23 249 38 405 85 591 179 98 51 105 53 84
33z m-155 -26 c-3 -5 -12 -10 -18 -10 -7 0 -6 4 3 10 19 12 23 12 15 0z m-228
-6 c-3 -3 -12 -4 -19 -1 -8 3 -5 6 6 6 11 1 17 -2 13 -5z m-399 -31 c-10 -2
-26 -2 -35 0 -10 3 -2 5 17 5 19 0 27 -2 18 -5z m-110 -10 c-32 -2 -84 -2
-115 0 -32 2 -6 3 57 3 63 0 89 -1 58 -3z m827 -30 c-25 -18 -123 -69 -112
-57 16 17 122 81 127 77 3 -3 -4 -11 -15 -20z m-598 1 c-3 -3 -12 -4 -19 -1
-8 3 -5 6 6 6 11 1 17 -2 13 -5z m-109 -91 c-10 -2 -26 -2 -35 0 -10 3 -2 5
17 5 19 0 27 -2 18 -5z m-185 -40 c-7 -2 -21 -2 -30 0 -10 3 -4 5 12 5 17 0
24 -2 18 -5z m680 -230 c-7 -2 -19 -2 -25 0 -7 3 -2 5 12 5 14 0 19 -2 13 -5z"/>
<path d="M2022 4698 c-15 -15 -16 -38 -2 -38 6 0 10 9 10 20 0 22 15 27 23 8
3 -8 6 -6 6 5 1 20 -19 23 -37 5z"/>
<path d="M1953 4628 c-37 -18 -26 -27 15 -13 65 22 68 23 37 24 -16 0 -40 -5
-52 -11z"/>
<path d="M2257 4622 c-25 -27 -21 -42 12 -42 32 0 56 22 47 45 -8 21 -39 19
-59 -3z m41 -14 c-6 -18 -28 -21 -28 -4 0 9 7 16 16 16 9 0 14 -5 12 -12z"/>
<path d="M1818 4623 c6 -2 12 -9 12 -14 0 -4 -7 -5 -17 -2 -11 4 -14 3 -9 -5
12 -19 36 -14 36 8 0 13 -6 20 -17 19 -11 0 -13 -3 -5 -6z"/>
<path d="M2948 4602 c-22 -9 -78 -60 -78 -71 0 -5 10 -11 23 -15 35 -9 87 -7
87 4 0 6 -18 10 -41 10 -52 0 -48 17 13 48 41 21 54 23 113 17 60 -7 65 -9 51
-24 -8 -9 -18 -28 -21 -43 -6 -21 -14 -28 -34 -29 -19 -1 -16 -3 14 -9 28 -5
49 -19 72 -45 24 -28 33 -34 33 -21 0 10 -16 33 -36 51 -39 36 -40 57 -3 91
17 15 25 16 52 6 28 -10 30 -10 13 3 -38 29 -209 47 -258 27z"/>
<path d="M1450 4591 c-19 -4 -44 -13 -55 -20 -19 -11 -18 -11 5 -5 14 4 40 10
58 15 19 4 36 10 39 13 7 7 2 6 -47 -3z"/>
<path d="M1518 4583 c7 -3 16 -2 19 1 4 3 -2 6 -13 5 -11 0 -14 -3 -6 -6z"/>
<path d="M2070 4567 c0 -9 18 -13 63 -12 34 0 72 -4 85 -8 13 -5 22 -4 22 1 0
16 -59 32 -116 32 -38 0 -54 -4 -54 -13z"/>
<path d="M1575 4550 c-7 -12 2 -12 30 0 19 8 19 9 -2 9 -12 1 -25 -3 -28 -9z"/>
<path d="M1944 4544 c-18 -15 -18 -15 4 -9 l23 7 -21 -42 c-12 -23 -19 -47
-17 -53 2 -7 14 7 26 31 25 49 46 61 67 40 12 -11 13 -21 4 -43 -11 -28 -1
-46 25 -44 6 0 5 3 -2 6 -9 3 -11 18 -6 49 6 43 5 44 -30 59 -45 19 -49 19
-73 -1z"/>
<path d="M1803 4543 c9 -2 23 -2 30 0 6 3 -1 5 -18 5 -16 0 -22 -2 -12 -5z"/>
<path d="M2583 4533 c-7 -2 -13 -12 -12 -21 0 -11 2 -12 6 -4 2 6 9 12 14 12
6 0 7 -5 3 -11 -4 -7 -1 -10 7 -7 16 5 19 30 4 34 -5 1 -16 0 -22 -3z"/>
<path d="M1460 4485 c-9 -11 -10 -19 -3 -26 17 -17 48 -6 48 16 0 25 -28 31
-45 10z m37 -21 c-9 -9 -28 6 -21 18 4 6 10 6 17 -1 6 -6 8 -13 4 -17z"/>
<path d="M2382 4493 c16 -4 15 -9 -10 -41 l-27 -36 45 33 c32 23 53 31 73 28
18 -2 24 0 18 6 -6 6 -34 11 -63 13 -29 1 -45 0 -36 -3z"/>
<path d="M2948 4493 c7 -3 16 -2 19 1 4 3 -2 6 -13 5 -11 0 -14 -3 -6 -6z"/>
<path d="M3315 4465 c21 -8 41 -12 44 -10 5 6 -47 25 -67 25 -9 -1 1 -7 23
-15z"/>
<path d="M1686 4453 c-11 -11 -6 -23 9 -23 8 0 15 4 15 9 0 13 -16 22 -24 14z"/>
<path d="M2607 4444 c-39 -21 -32 -24 28 -13 53 10 135 3 135 -12 0 -5 -12
-10 -27 -10 -19 -1 -22 -3 -10 -6 14 -3 17 -11 13 -26 -4 -20 -2 -19 19 6 29
33 29 33 55 5 16 -18 20 -19 20 -6 0 26 -27 46 -82 63 -65 19 -115 19 -151 -1z"/>
<path d="M2147 4438 c-15 -11 -7 -13 47 -13 56 0 70 -4 110 -32 29 -20 46 -28
46 -19 0 49 -156 98 -203 64z"/>
<path d="M1830 4420 c-10 -6 0 -10 35 -12 47 -3 50 -5 55 -33 5 -25 7 -27 13
-11 12 31 -18 66 -56 66 -17 0 -39 -4 -47 -10z"/>
<path d="M2663 4413 c9 -2 23 -2 30 0 6 3 -1 5 -18 5 -16 0 -22 -2 -12 -5z"/>
<path d="M3314 4405 c-10 -25 4 -45 30 -45 33 0 39 12 20 38 -18 25 -42 29
-50 7z m34 -19 c3 -12 -1 -17 -10 -14 -7 3 -15 13 -16 22 -3 12 1 17 10 14 7
-3 15 -13 16 -22z"/>
<path d="M1492 4370 c-27 -25 -28 -53 -4 -71 14 -11 15 -11 5 1 -20 22 -15 48
12 66 33 21 70 11 89 -24 9 -15 15 -20 16 -12 1 54 -75 80 -118 40z"/>
<path d="M3395 4360 c-3 -11 -11 -20 -16 -20 -5 0 -9 -8 -9 -18 0 -37 -104
-113 -142 -105 -11 3 -18 -1 -18 -11 0 -21 2 -21 66 11 57 28 114 82 114 108
0 8 7 15 15 15 16 0 21 25 6 35 -5 3 -12 -4 -16 -15z"/>
<path d="M1220 4335 c-10 -12 -10 -18 0 -30 16 -19 39 -19 46 0 6 15 -11 45
-26 45 -4 0 -13 -7 -20 -15z m30 -15 c0 -5 -4 -10 -10 -10 -5 0 -10 5 -10 10
0 6 5 10 10 10 6 0 10 -4 10 -10z"/>
<path d="M3142 4329 c-11 -18 -11 -24 2 -37 10 -12 12 -22 5 -35 -8 -13 -6
-17 6 -17 8 0 15 6 15 14 0 11 10 13 39 9 32 -4 41 -2 55 18 24 35 20 46 -8
20 -33 -31 -69 -25 -76 13 -6 37 -21 42 -38 15z"/>
<path d="M1716 4331 c-4 -7 -5 -15 -2 -18 9 -9 19 4 14 18 -4 11 -6 11 -12 0z"/>
<path d="M2200 4330 c0 -5 5 -10 11 -10 5 0 7 5 4 10 -3 6 -8 10 -11 10 -2 0
-4 -4 -4 -10z"/>
<path d="M1180 4282 c0 -22 4 -43 9 -46 5 -4 7 12 4 36 -8 57 -13 61 -13 10z"/>
<path d="M1905 4310 c3 -5 12 -10 19 -10 8 0 19 -6 25 -14 9 -10 8 -15 -4 -20
-20 -7 -19 -40 1 -56 12 -11 18 -11 30 2 22 22 7 66 -30 89 -34 21 -51 24 -41
9z m68 -64 c6 -15 -1 -26 -15 -26 -4 0 -8 9 -8 20 0 23 15 27 23 6z"/>
<path d="M2415 4295 c31 -10 61 -28 78 -48 25 -29 27 -29 19 -7 -13 36 -52 61
-103 66 l-44 4 50 -15z"/>
<path d="M1644 4289 c-9 -15 12 -33 30 -26 9 4 16 13 16 22 0 17 -35 21 -46 4z
m36 -9 c0 -5 -4 -10 -10 -10 -5 0 -10 5 -10 10 0 6 5 10 10 10 6 0 10 -4 10
-10z"/>
<path d="M2864 4285 c-8 -21 2 -45 19 -45 20 0 40 27 33 45 -7 19 -45 20 -52
0z m41 -6 c10 -15 -1 -23 -20 -15 -9 3 -13 10 -10 16 8 13 22 13 30 -1z"/>
<path d="M2558 4276 c-10 -7 -18 -19 -18 -26 0 -9 5 -8 18 3 22 20 43 22 60 5
9 -9 12 -9 12 0 0 11 -31 32 -47 32 -4 0 -16 -7 -25 -14z"/>
<path d="M3022 4248 c5 -15 28 -23 28 -10 0 5 -7 13 -16 16 -10 4 -14 1 -12
-6z"/>
<path d="M2620 4235 c0 -3 16 -19 35 -36 40 -36 44 -61 13 -83 l-22 -16 22 0
c33 0 48 39 29 76 -13 26 -77 75 -77 59z"/>
<path d="M1836 4186 c-3 -13 -20 -37 -38 -55 -17 -17 -28 -34 -24 -38 12 -12
76 67 76 94 0 30 -6 30 -14 -1z"/>
<path d="M1274 4176 c-21 -17 -28 -32 -28 -60 0 -20 4 -40 10 -46 7 -7 9 2 6
26 -3 27 1 41 19 60 34 37 91 33 154 -10 30 -20 68 -37 95 -40 l45 -7 -55 24
c-30 14 -75 36 -100 51 -58 33 -109 34 -146 2z"/>
<path d="M2850 4187 c0 -2 13 -13 30 -25 17 -13 27 -17 24 -8 -4 11 -54 41
-54 33z"/>
<path d="M2555 4150 c-9 -27 1 -40 31 -40 29 0 42 24 24 45 -18 21 -48 19 -55
-5z m50 -10 c0 -8 -8 -16 -17 -18 -13 -2 -18 3 -18 18 0 15 5 20 18 18 9 -2
17 -10 17 -18z"/>
<path d="M2500 4130 c0 -5 5 -10 11 -10 5 0 7 5 4 10 -3 6 -8 10 -11 10 -2 0
-4 -4 -4 -10z"/>
<path d="M2440 4104 c-19 -18 -21 -24 -9 -24 19 0 43 25 37 38 -1 5 -14 -2
-28 -14z"/>
<path d="M2350 4099 c0 -18 2 -19 15 -9 15 12 12 30 -6 30 -5 0 -9 -10 -9 -21z"/>
<path d="M2760 4100 c0 -19 11 -26 23 -14 8 8 -3 34 -14 34 -5 0 -9 -9 -9 -20z"/>
<path d="M1173 4083 c-18 -7 -16 -38 3 -53 12 -11 18 -10 32 4 25 25 -2 63
-35 49z m27 -28 c0 -8 -4 -15 -9 -15 -13 0 -22 16 -14 24 11 11 23 6 23 -9z"/>
<path d="M1126 4061 c-4 -7 -5 -15 -2 -18 9 -9 19 4 14 18 -4 11 -6 11 -12 0z"/>
<path d="M2105 4040 c-4 -6 10 -10 34 -10 22 0 43 5 46 10 4 6 -10 10 -34 10
-22 0 -43 -4 -46 -10z"/>
<path d="M1238 3972 c3 -26 0 -33 -19 -40 -12 -5 -18 -12 -12 -15 12 -8 53 20
53 37 0 7 -6 20 -13 31 -13 16 -14 15 -9 -13z"/>
<path d="M1095 3951 c-3 -5 -1 -12 5 -16 5 -3 10 1 10 9 0 18 -6 21 -15 7z"/>
<path d="M1090 3864 c0 -8 5 -12 10 -9 6 3 10 10 10 16 0 5 -4 9 -10 9 -5 0
-10 -7 -10 -16z"/>
<path d="M1156 3853 c-8 -19 14 -37 28 -23 10 10 1 40 -13 40 -5 0 -12 -8 -15
-17z"/>
<path d="M1000 3784 c0 -9 5 -14 12 -12 18 6 21 28 4 28 -9 0 -16 -7 -16 -16z"/>
<path d="M1234 3773 c18 -35 32 -48 40 -35 3 5 -9 22 -26 38 l-30 29 16 -32z"/>
<path d="M1119 3773 c-13 -16 -12 -17 3 -4 15 11 19 11 24 -4 10 -25 -11 -41
-32 -24 -15 12 -17 12 -13 0 3 -8 13 -19 22 -25 25 -16 52 14 43 48 -7 30 -28
34 -47 9z"/>
<path d="M1032 3718 c4 -28 32 -30 35 -3 2 11 0 14 -3 8 -8 -18 -27 -16 -20 2
3 8 1 15 -5 15 -6 0 -9 -10 -7 -22z"/>
<path d="M1190 3675 c0 -27 9 -32 28 -13 18 18 14 38 -8 38 -15 0 -20 -7 -20
-25z"/>
<path d="M3272 3987 l5 -58 -60 -30 c-79 -40 -65 -50 16 -11 l64 30 -9 58
c-12 77 -22 84 -16 11z"/>
<path d="M3208 3864 c-38 -19 -68 -39 -68 -44 0 -11 159 61 160 73 0 14 -25 6
-92 -29z"/>
<path d="M3215 3834 c-78 -39 -97 -54 -74 -54 9 0 47 16 85 36 38 20 58 26 44
15 -14 -11 -54 -35 -90 -53 -39 -19 -58 -34 -48 -36 9 -2 35 6 57 18 61 31 49
17 -16 -21 -64 -36 -58 -52 6 -19 57 28 51 18 -10 -20 -28 -17 -49 -33 -46
-36 8 -8 103 43 139 75 32 28 48 71 26 71 -7 0 -7 4 -1 13 11 13 13 47 4 47
-3 0 -37 -16 -76 -36z m75 -58 c0 -2 -7 -7 -16 -10 -8 -3 -12 -2 -9 4 6 10 25
14 25 6z"/>
<path d="M2885 3500 l-50 -7 50 0 c28 0 64 3 80 7 l30 8 -30 -1 c-16 0 -52 -3
-80 -7z"/>
<path d="M1356 3961 c-5 -7 -3 -18 3 -24 14 -14 20 -6 11 17 -5 15 -9 16 -14
7z"/>
<path d="M1677 3903 c-4 -3 -7 -15 -7 -25 0 -12 7 -18 24 -18 29 0 39 12 30
34 -6 16 -35 22 -47 9z m33 -24 c0 -5 -4 -9 -10 -9 -5 0 -10 7 -10 16 0 8 5
12 10 9 6 -3 10 -10 10 -16z"/>
<path d="M2704 3809 c-10 -17 23 -46 37 -32 7 7 9 19 6 27 -7 18 -33 21 -43 5z
m36 -9 c0 -5 -4 -10 -10 -10 -5 0 -10 5 -10 10 0 6 5 10 10 10 6 0 10 -4 10
-10z"/>
<path d="M1800 3766 c-18 -22 -5 -48 22 -44 17 2 23 10 23 28 0 29 -26 38 -45
16z m30 -16 c0 -5 -5 -10 -11 -10 -5 0 -7 5 -4 10 3 6 8 10 11 10 2 0 4 -4 4
-10z"/>
<path d="M1697 3743 c-12 -11 -7 -33 8 -39 20 -8 45 13 38 32 -5 14 -34 19
-46 7z m28 -13 c3 -5 1 -10 -4 -10 -6 0 -11 5 -11 10 0 6 2 10 4 10 3 0 8 -4
11 -10z"/>
<path d="M1520 3690 c0 -5 5 -10 10 -10 6 0 10 5 10 10 0 6 -4 10 -10 10 -5 0
-10 -4 -10 -10z"/>
<path d="M1434 3619 c27 -11 54 -18 60 -16 11 4 -79 37 -98 36 -6 0 11 -9 38
-20z"/>
<path d="M1635 3594 c-15 -15 -15 -19 -1 -32 20 -20 48 -8 44 20 -4 28 -21 33
-43 12z m35 -14 c0 -5 -7 -10 -16 -10 -8 0 -12 5 -9 10 3 6 10 10 16 10 5 0 9
-4 9 -10z"/>
<path d="M1814 3565 c-4 -9 -2 -21 4 -27 16 -16 47 -5 47 17 0 26 -42 34 -51
10z m36 -11 c0 -8 -4 -12 -10 -9 -5 3 -10 10 -10 16 0 5 5 9 10 9 6 0 10 -7
10 -16z"/>
<path d="M1920 3430 c69 -17 336 -32 450 -26 210 13 188 22 -50 21 -129 0
-280 3 -335 7 -63 4 -87 3 -65 -2z"/>
<path d="M4110 3385 c46 -18 64 -17 25 0 -16 8 -37 14 -45 14 -8 0 1 -7 20
-14z"/>
<path d="M1450 3460 c0 -5 5 -10 10 -10 6 0 10 5 10 10 0 6 -4 10 -10 10 -5 0
-10 -4 -10 -10z"/>
<path d="M2913 3403 c-7 -2 -13 -16 -13 -29 0 -19 5 -24 25 -24 27 0 28 3 19
38 -6 23 -10 24 -31 15z"/>
<path d="M2856 3393 c-12 -12 -6 -43 9 -43 8 0 15 9 15 19 0 21 -13 34 -24 24z"/>
<path d="M2742 3373 c-15 -6 -6 -23 14 -23 8 0 14 7 14 15 0 15 -6 17 -28 8z"/>
<path d="M2370 3319 c0 -6 -7 -9 -15 -5 -10 4 -15 -1 -15 -14 0 -11 5 -20 10
-20 6 0 10 5 10 10 0 6 5 9 12 8 6 -2 14 5 16 15 2 9 -1 17 -7 17 -6 0 -11 -5
-11 -11z"/>
<path d="M2802 3294 c4 -21 22 -23 26 -1 2 10 -3 17 -13 17 -10 0 -15 -6 -13
-16z"/>
<path d="M2860 3289 c0 -11 4 -18 10 -14 5 3 7 12 3 20 -7 21 -13 19 -13 -6z"/>
<path d="M2920 3301 c0 -6 4 -12 8 -15 5 -3 9 1 9 9 0 8 -4 15 -9 15 -4 0 -8
-4 -8 -9z"/>
<path d="M2972 3288 c2 -13 8 -23 13 -23 6 0 11 10 13 23 2 15 -2 22 -13 22
-11 0 -15 -7 -13 -22z"/>
<path d="M2750 3290 c0 -5 5 -10 10 -10 6 0 10 5 10 10 0 6 -4 10 -10 10 -5 0
-10 -4 -10 -10z"/>
<path d="M2638 3273 c7 -3 16 -2 19 1 4 3 -2 6 -13 5 -11 0 -14 -3 -6 -6z"/>
<path d="M2917 3233 c-13 -12 -7 -33 8 -33 8 0 15 9 15 20 0 20 -11 26 -23 13z"/>
<path d="M2983 3233 c-18 -6 -16 -33 1 -33 15 0 30 27 18 33 -4 3 -13 2 -19 0z"/>
<path d="M2242 3218 c6 -18 28 -21 28 -4 0 9 -7 16 -16 16 -9 0 -14 -5 -12
-12z"/>
<path d="M2300 3214 c0 -8 5 -12 10 -9 6 4 8 11 5 16 -9 14 -15 11 -15 -7z"/>
<path d="M2350 3218 c0 -4 7 -8 15 -8 8 0 15 4 15 8 0 5 -7 9 -15 9 -8 0 -15
-4 -15 -9z"/>
<path d="M2417 3223 c-12 -11 -8 -23 8 -23 8 0 15 7 15 15 0 16 -12 20 -23 8z"/>
<path d="M2470 3214 c0 -8 5 -12 10 -9 6 3 10 10 10 16 0 5 -4 9 -10 9 -5 0
-10 -7 -10 -16z"/>
<path d="M2526 3221 c-4 -7 -5 -15 -2 -18 9 -9 19 4 14 18 -4 11 -6 11 -12 0z"/>
<path d="M2580 3220 c0 -5 4 -10 9 -10 6 0 13 5 16 10 3 6 -1 10 -9 10 -9 0
-16 -4 -16 -10z"/>
<path d="M2643 3223 c-18 -7 -16 -23 2 -23 8 0 15 7 15 15 0 8 -1 15 -2 14 -2
0 -9 -3 -15 -6z"/>
<path d="M2740 3215 c0 -8 7 -15 15 -15 8 0 15 7 15 15 0 8 -7 15 -15 15 -8 0
-15 -7 -15 -15z"/>
<path d="M2807 3223 c-12 -11 -8 -23 8 -23 8 0 15 7 15 15 0 16 -12 20 -23 8z"/>
<path d="M2860 3215 c0 -8 5 -15 10 -15 6 0 10 7 10 15 0 8 -4 15 -10 15 -5 0
-10 -7 -10 -15z"/>
<path d="M1915 3210 c3 -5 8 -10 11 -10 2 0 4 5 4 10 0 6 -5 10 -11 10 -5 0
-7 -4 -4 -10z"/>
<path d="M2690 3210 c0 -5 5 -10 10 -10 6 0 10 5 10 10 0 6 -4 10 -10 10 -5 0
-10 -4 -10 -10z"/>
<path d="M2970 3140 c0 -24 25 -27 34 -4 9 23 8 24 -14 24 -13 0 -20 -7 -20
-20z"/>
<path d="M1915 3141 c-6 -11 9 -23 19 -14 9 9 7 23 -3 23 -6 0 -12 -4 -16 -9z"/>
<path d="M2080 3140 c0 -5 5 -10 10 -10 6 0 10 5 10 10 0 6 -4 10 -10 10 -5 0
-10 -4 -10 -10z"/>
<path d="M2300 3134 c0 -8 5 -12 10 -9 6 3 10 10 10 16 0 5 -4 9 -10 9 -5 0
-10 -7 -10 -16z"/>
<path d="M2420 3134 c0 -8 5 -12 10 -9 6 4 8 11 5 16 -9 14 -15 11 -15 -7z"/>
<path d="M2465 3140 c-3 -5 -1 -10 4 -10 6 0 11 5 11 10 0 6 -2 10 -4 10 -3 0
-8 -4 -11 -10z"/>
<path d="M2580 3134 c0 -8 5 -12 10 -9 6 3 10 10 10 16 0 5 -4 9 -10 9 -5 0
-10 -7 -10 -16z"/>
<path d="M2630 3134 c0 -17 22 -14 28 4 2 7 -3 12 -12 12 -9 0 -16 -7 -16 -16z"/>
<path d="M2695 3140 c-3 -5 -1 -10 4 -10 6 0 11 5 11 10 0 6 -2 10 -4 10 -3 0
-8 -4 -11 -10z"/>
<path d="M2746 3141 c-4 -7 -5 -15 -2 -18 9 -9 19 4 14 18 -4 11 -6 11 -12 0z"/>
<path d="M2800 3134 c0 -9 5 -14 12 -12 18 6 21 28 4 28 -9 0 -16 -7 -16 -16z"/>
<path d="M2860 3135 c0 -8 5 -15 10 -15 6 0 10 7 10 15 0 8 -4 15 -10 15 -5 0
-10 -7 -10 -15z"/>
<path d="M1965 3130 c4 -6 11 -8 16 -5 14 9 11 15 -7 15 -8 0 -12 -5 -9 -10z"/>
<path d="M2130 3130 c0 -5 5 -10 10 -10 6 0 10 5 10 10 0 6 -4 10 -10 10 -5 0
-10 -4 -10 -10z"/>
<path d="M2350 3130 c0 -5 5 -10 10 -10 6 0 10 5 10 10 0 6 -4 10 -10 10 -5 0
-10 -4 -10 -10z"/>
<path d="M2977 3093 c-4 -3 -7 -15 -7 -25 0 -28 34 -19 38 10 3 21 -16 31 -31
15z"/>
<path d="M2857 3070 c3 -11 9 -20 14 -20 5 0 9 9 9 20 0 11 -6 20 -14 20 -9 0
-12 -7 -9 -20z"/>
<path d="M2297 3073 c-10 -9 -9 -23 2 -23 5 0 11 7 15 15 5 15 -5 20 -17 8z"/>
<path d="M2580 3065 c0 -8 5 -15 10 -15 6 0 10 7 10 15 0 8 -4 15 -10 15 -5 0
-10 -7 -10 -15z"/>
<path d="M2800 3066 c0 -9 7 -16 16 -16 9 0 14 5 12 12 -6 18 -28 21 -28 4z"/>
<path d="M2920 3069 c0 -5 5 -7 10 -4 6 3 10 8 10 11 0 2 -4 4 -10 4 -5 0 -10
-5 -10 -11z"/>
<path d="M2420 3050 c0 -11 2 -20 4 -20 2 0 6 9 9 20 3 11 1 20 -4 20 -5 0 -9
-9 -9 -20z"/>
<path d="M2630 3060 c0 -5 7 -10 15 -10 8 0 15 5 15 10 0 6 -7 10 -15 10 -8 0
-15 -4 -15 -10z"/>
<path d="M2860 2995 c0 -14 5 -25 10 -25 6 0 10 11 10 25 0 14 -4 25 -10 25
-5 0 -10 -11 -10 -25z"/>
<path d="M2969 2999 c-14 -28 1 -43 26 -25 11 8 16 19 12 30 -9 22 -24 20 -38
-5z"/>
<path d="M2292 2998 c6 -18 28 -21 28 -4 0 9 -7 16 -16 16 -9 0 -14 -5 -12
-12z"/>
<path d="M2920 2995 c0 -8 5 -15 10 -15 6 0 10 7 10 15 0 8 -4 15 -10 15 -5 0
-10 -7 -10 -15z"/>
<path d="M1910 2991 c0 -6 5 -13 10 -16 6 -3 10 1 10 9 0 9 -4 16 -10 16 -5 0
-10 -4 -10 -9z"/>
<path d="M2580 2990 c0 -5 5 -10 10 -10 6 0 10 5 10 10 0 6 -4 10 -10 10 -5 0
-10 -4 -10 -10z"/>
<path d="M2630 2985 c0 -8 7 -15 15 -15 8 0 15 7 15 15 0 8 -7 15 -15 15 -8 0
-15 -7 -15 -15z"/>
<path d="M2800 2985 c0 -8 7 -15 15 -15 8 0 15 7 15 15 0 8 -7 15 -15 15 -8 0
-15 -7 -15 -15z"/>
<path d="M2420 2980 c0 -5 5 -10 10 -10 6 0 10 5 10 10 0 6 -4 10 -10 10 -5 0
-10 -4 -10 -10z"/>
<path d="M2418 2922 c-4 -12 -2 -25 4 -28 16 -10 22 4 11 28 l-10 22 -5 -22z"/>
<path d="M1916 2921 c-4 -7 -5 -15 -2 -18 9 -9 19 4 14 18 -4 11 -6 11 -12 0z"/>
<path d="M2130 2916 c0 -9 5 -16 10 -16 6 0 10 4 10 9 0 6 -4 13 -10 16 -5 3
-10 -1 -10 -9z"/>
<path d="M2471 2914 c0 -11 3 -14 6 -6 3 7 2 16 -1 19 -3 4 -6 -2 -5 -13z"/>
<path d="M2586 2921 c-4 -7 -5 -15 -2 -18 9 -9 19 4 14 18 -4 11 -6 11 -12 0z"/>
<path d="M2637 2923 c-13 -13 -7 -32 8 -27 8 4 15 12 15 20 0 15 -12 19 -23 7z"/>
<path d="M2797 2923 c-13 -12 -7 -23 13 -23 11 0 20 7 20 15 0 15 -21 21 -33
8z"/>
<path d="M2860 2910 c0 -11 5 -20 10 -20 6 0 10 9 10 20 0 11 -4 20 -10 20 -5
0 -10 -9 -10 -20z"/>
<path d="M1970 2909 c0 -5 5 -7 10 -4 6 3 10 8 10 11 0 2 -4 4 -10 4 -5 0 -10
-5 -10 -11z"/>
<path d="M2080 2910 c0 -5 5 -10 10 -10 6 0 10 5 10 10 0 6 -4 10 -10 10 -5 0
-10 -4 -10 -10z"/>
<path d="M2358 2913 c7 -3 16 -2 19 1 4 3 -2 6 -13 5 -11 0 -14 -3 -6 -6z"/>
<path d="M2520 2910 c0 -5 5 -10 10 -10 6 0 10 5 10 10 0 6 -4 10 -10 10 -5 0
-10 -4 -10 -10z"/>
<path d="M2690 2910 c0 -5 5 -10 10 -10 6 0 10 5 10 10 0 6 -4 10 -10 10 -5 0
-10 -4 -10 -10z"/>
<path d="M2740 2910 c0 -5 7 -10 15 -10 8 0 15 5 15 10 0 6 -7 10 -15 10 -8 0
-15 -4 -15 -10z"/>
<path d="M2920 2909 c0 -5 5 -7 10 -4 6 3 10 8 10 11 0 2 -4 4 -10 4 -5 0 -10
-5 -10 -11z"/>
<path d="M2983 2863 c-7 -2 -13 -15 -13 -29 0 -30 23 -23 38 12 12 25 5 30
-25 17z"/>
<path d="M1916 2841 c-4 -5 -2 -12 3 -15 5 -4 12 -2 15 3 4 5 2 12 -3 15 -5 4
-12 2 -15 -3z"/>
<path d="M2080 2840 c0 -5 5 -10 10 -10 6 0 10 5 10 10 0 6 -4 10 -10 10 -5 0
-10 -4 -10 -10z"/>
<path d="M2130 2835 c0 -8 5 -15 10 -15 6 0 10 7 10 15 0 8 -4 15 -10 15 -5 0
-10 -7 -10 -15z"/>
<path d="M2185 2839 c-4 -6 -5 -13 -2 -16 7 -7 27 6 27 18 0 12 -17 12 -25 -2z"/>
<path d="M2355 2840 c-3 -5 1 -10 9 -10 9 0 16 5 16 10 0 6 -4 10 -9 10 -6 0
-13 -4 -16 -10z"/>
<path d="M2416 2835 c-3 -9 0 -15 9 -15 16 0 20 16 6 24 -5 3 -11 -1 -15 -9z"/>
<path d="M2460 2835 c0 -8 5 -15 10 -15 6 0 10 7 10 15 0 8 -4 15 -10 15 -5 0
-10 -7 -10 -15z"/>
<path d="M2580 2840 c0 -5 5 -10 10 -10 6 0 10 5 10 10 0 6 -4 10 -10 10 -5 0
-10 -4 -10 -10z"/>
<path d="M2630 2835 c0 -8 7 -15 15 -15 8 0 15 7 15 15 0 8 -7 15 -15 15 -8 0
-15 -7 -15 -15z"/>
<path d="M2690 2834 c0 -8 5 -12 10 -9 6 3 10 10 10 16 0 5 -4 9 -10 9 -5 0
-10 -7 -10 -16z"/>
<path d="M2740 2840 c0 -5 4 -10 9 -10 6 0 13 5 16 10 3 6 -1 10 -9 10 -9 0
-16 -4 -16 -10z"/>
<path d="M2800 2834 c0 -9 5 -14 12 -12 18 6 21 28 4 28 -9 0 -16 -7 -16 -16z"/>
<path d="M2860 2835 c0 -8 5 -15 10 -15 6 0 10 7 10 15 0 8 -4 15 -10 15 -5 0
-10 -7 -10 -15z"/>
<path d="M2915 2840 c-3 -5 1 -10 9 -10 9 0 16 5 16 10 0 6 -4 10 -9 10 -6 0
-13 -4 -16 -10z"/>
<path d="M1960 2830 c0 -5 4 -10 9 -10 6 0 13 5 16 10 3 6 -1 10 -9 10 -9 0
-16 -4 -16 -10z"/>
<path d="M2518 2833 c7 -3 16 -2 19 1 4 3 -2 6 -13 5 -11 0 -14 -3 -6 -6z"/>
<path d="M2471 2785 c-2 -5 -5 -55 -6 -110 -3 -192 -2 -187 -25 -175 -17 9
-20 8 -20 -8 0 -13 7 -18 23 -18 16 1 22 -5 22 -19 0 -13 -8 -21 -22 -23 -30
-4 -30 -20 -1 -24 33 -4 35 -36 4 -48 -55 -20 -10 -43 65 -33 48 7 50 20 4 29
l-35 6 -3 217 c-1 119 -4 212 -6 206z"/>
<path d="M1915 2770 c-4 -6 -3 -16 3 -22 6 -6 12 -6 17 2 4 6 3 16 -3 22 -6 6
-12 6 -17 -2z"/>
<path d="M2580 2765 c0 -8 5 -15 10 -15 6 0 10 7 10 15 0 8 -4 15 -10 15 -5 0
-10 -7 -10 -15z"/>
<path d="M2637 2773 c-12 -11 -8 -23 8 -23 8 0 15 7 15 15 0 16 -12 20 -23 8z"/>
<path d="M2813 2773 c-18 -7 -16 -23 2 -23 8 0 15 7 15 15 0 8 -1 15 -2 14 -2
0 -9 -3 -15 -6z"/>
<path d="M2860 2765 c0 -8 5 -15 10 -15 6 0 10 7 10 15 0 8 -4 15 -10 15 -5 0
-10 -7 -10 -15z"/>
<path d="M2926 2771 c-4 -7 -5 -15 -2 -18 9 -9 19 4 14 18 -4 11 -6 11 -12 0z"/>
<path d="M1960 2760 c0 -5 7 -10 15 -10 8 0 15 5 15 10 0 6 -7 10 -15 10 -8 0
-15 -4 -15 -10z"/>
<path d="M2130 2754 c0 -8 5 -12 10 -9 6 3 10 10 10 16 0 5 -4 9 -10 9 -5 0
-10 -7 -10 -16z"/>
<path d="M2180 2760 c0 -5 7 -10 16 -10 8 0 12 5 9 10 -3 6 -10 10 -16 10 -5
0 -9 -4 -9 -10z"/>
<path d="M2420 2760 c0 -5 4 -10 9 -10 6 0 13 5 16 10 3 6 -1 10 -9 10 -9 0
-16 -4 -16 -10z"/>
<path d="M2515 2760 c3 -5 10 -10 16 -10 5 0 9 5 9 10 0 6 -7 10 -16 10 -8 0
-12 -4 -9 -10z"/>
<path d="M2690 2760 c0 -5 5 -10 10 -10 6 0 10 5 10 10 0 6 -4 10 -10 10 -5 0
-10 -4 -10 -10z"/>
<path d="M2740 2760 c0 -5 7 -10 15 -10 8 0 15 5 15 10 0 6 -7 10 -15 10 -8 0
-15 -4 -15 -10z"/>
<path d="M1916 2701 c-4 -7 -5 -15 -2 -18 9 -9 19 4 14 18 -4 11 -6 11 -12 0z"/>
<path d="M1965 2700 c3 -5 10 -10 16 -10 5 0 9 5 9 10 0 6 -7 10 -16 10 -8 0
-12 -4 -9 -10z"/>
<path d="M2080 2695 c0 -8 5 -15 10 -15 6 0 10 7 10 15 0 8 -4 15 -10 15 -5 0
-10 -7 -10 -15z"/>
<path d="M2130 2689 c0 -11 5 -17 10 -14 6 3 10 13 10 21 0 8 -4 14 -10 14 -5
0 -10 -9 -10 -21z"/>
<path d="M2180 2696 c0 -9 7 -16 16 -16 9 0 14 5 12 12 -6 18 -28 21 -28 4z"/>
<path d="M2366 2700 c-17 -6 -18 -7 -3 -13 9 -3 19 -2 23 4 9 15 2 18 -20 9z"/>
<path d="M2420 2694 c0 -17 22 -14 28 4 2 7 -3 12 -12 12 -9 0 -16 -7 -16 -16z"/>
<path d="M2510 2695 c0 -9 5 -15 11 -13 6 2 11 8 11 13 0 5 -5 11 -11 13 -6 2
-11 -4 -11 -13z"/>
<path d="M2580 2694 c0 -14 3 -14 15 -4 8 7 15 14 15 16 0 2 -7 4 -15 4 -8 0
-15 -7 -15 -16z"/>
<path d="M2630 2695 c0 -8 7 -15 15 -15 8 0 15 7 15 15 0 8 -7 15 -15 15 -8 0
-15 -7 -15 -15z"/>
<path d="M2686 2695 c4 -8 10 -12 15 -9 14 8 10 24 -6 24 -9 0 -12 -6 -9 -15z"/>
<path d="M2742 2699 c2 -6 8 -10 13 -10 5 0 11 4 13 10 2 6 -4 11 -13 11 -9 0
-15 -5 -13 -11z"/>
<path d="M2802 2694 c4 -21 22 -23 26 -1 2 10 -3 17 -13 17 -10 0 -15 -6 -13
-16z"/>
<path d="M2860 2695 c0 -8 5 -15 10 -15 6 0 10 7 10 15 0 8 -4 15 -10 15 -5 0
-10 -7 -10 -15z"/>
<path d="M2920 2700 c0 -5 5 -10 10 -10 6 0 10 5 10 10 0 6 -4 10 -10 10 -5 0
-10 -4 -10 -10z"/>
<path d="M1916 2631 c-4 -7 -5 -15 -2 -18 9 -9 19 4 14 18 -4 11 -6 11 -12 0z"/>
<path d="M2080 2630 c0 -5 5 -10 10 -10 6 0 10 5 10 10 0 6 -4 10 -10 10 -5 0
-10 -4 -10 -10z"/>
<path d="M2132 2620 c0 -14 2 -19 5 -12 2 6 2 18 0 25 -3 6 -5 1 -5 -13z"/>
<path d="M2420 2626 c0 -9 5 -16 10 -16 6 0 10 4 10 9 0 6 -4 13 -10 16 -5 3
-10 -1 -10 -9z"/>
<path d="M2580 2625 c0 -8 5 -15 10 -15 6 0 10 7 10 15 0 8 -4 15 -10 15 -5 0
-10 -7 -10 -15z"/>
<path d="M2920 2625 c0 -8 5 -15 10 -15 6 0 10 7 10 15 0 8 -4 15 -10 15 -5 0
-10 -7 -10 -15z"/>
<path d="M1795 2620 c-3 -5 -1 -10 4 -10 6 0 11 5 11 10 0 6 -2 10 -4 10 -3 0
-8 -4 -11 -10z"/>
<path d="M1965 2620 c3 -5 10 -10 16 -10 5 0 9 5 9 10 0 6 -7 10 -16 10 -8 0
-12 -4 -9 -10z"/>
<path d="M2515 2620 c-3 -5 1 -10 9 -10 9 0 16 5 16 10 0 6 -4 10 -9 10 -6 0
-13 -4 -16 -10z"/>
<path d="M2630 2620 c0 -5 7 -10 15 -10 8 0 15 5 15 10 0 6 -7 10 -15 10 -8 0
-15 -4 -15 -10z"/>
<path d="M2690 2620 c0 -5 5 -10 10 -10 6 0 10 5 10 10 0 6 -4 10 -10 10 -5 0
-10 -4 -10 -10z"/>
<path d="M2742 2619 c2 -6 8 -10 13 -10 5 0 11 4 13 10 2 6 -4 11 -13 11 -9 0
-15 -5 -13 -11z"/>
<path d="M2800 2615 c0 -8 5 -15 10 -15 6 0 10 7 10 15 0 8 -4 15 -10 15 -5 0
-10 -7 -10 -15z"/>
<path d="M2862 2621 c2 -7 7 -12 11 -12 12 1 9 15 -3 20 -7 2 -11 -2 -8 -8z"/>
<path d="M1910 2549 c0 -24 23 -21 28 4 2 10 -3 17 -12 17 -10 0 -16 -9 -16
-21z"/>
<path d="M2080 2555 c0 -8 5 -15 10 -15 6 0 10 7 10 15 0 8 -4 15 -10 15 -5 0
-10 -7 -10 -15z"/>
<path d="M2125 2560 c-8 -13 4 -32 16 -25 12 8 12 35 0 35 -6 0 -13 -4 -16
-10z"/>
<path d="M2420 2554 c0 -9 5 -14 12 -12 18 6 21 28 4 28 -9 0 -16 -7 -16 -16z"/>
<path d="M2580 2555 c0 -8 5 -15 10 -15 6 0 10 7 10 15 0 8 -4 15 -10 15 -5 0
-10 -7 -10 -15z"/>
<path d="M2637 2563 c-12 -11 -8 -23 8 -23 8 0 15 7 15 15 0 16 -12 20 -23 8z"/>
<path d="M2687 2563 c-12 -11 -8 -23 8 -23 8 0 15 7 15 15 0 16 -12 20 -23 8z"/>
<path d="M2800 2555 c0 -8 7 -15 15 -15 8 0 15 7 15 15 0 8 -7 15 -15 15 -8 0
-15 -7 -15 -15z"/>
<path d="M2855 2559 c-10 -15 1 -23 20 -15 9 3 13 10 10 16 -8 13 -22 13 -30
-1z"/>
<path d="M2926 2561 c-4 -7 -5 -15 -2 -18 9 -9 19 4 14 18 -4 11 -6 11 -12 0z"/>
<path d="M1790 2550 c0 -5 5 -10 10 -10 6 0 10 5 10 10 0 6 -4 10 -10 10 -5 0
-10 -4 -10 -10z"/>
<path d="M1855 2550 c3 -5 10 -10 16 -10 5 0 9 5 9 10 0 6 -7 10 -16 10 -8 0
-12 -4 -9 -10z"/>
<path d="M1960 2550 c0 -5 7 -10 15 -10 8 0 15 5 15 10 0 6 -7 10 -15 10 -8 0
-15 -4 -15 -10z"/>
<path d="M2180 2550 c0 -5 5 -10 10 -10 6 0 10 5 10 10 0 6 -4 10 -10 10 -5 0
-10 -4 -10 -10z"/>
<path d="M2510 2550 c0 -5 7 -10 15 -10 8 0 15 5 15 10 0 6 -7 10 -15 10 -8 0
-15 -4 -15 -10z"/>
<path d="M2740 2550 c0 -5 7 -10 15 -10 8 0 15 5 15 10 0 6 -7 10 -15 10 -8 0
-15 -4 -15 -10z"/>
<path d="M2125 2501 c-9 -30 6 -50 17 -21 5 14 5 27 -1 33 -5 5 -12 1 -16 -12z"/>
<path d="M1914 2496 c-8 -22 3 -33 18 -18 9 9 9 15 0 24 -9 9 -13 7 -18 -6z"/>
<path d="M1964 2497 c-8 -21 2 -35 16 -21 5 5 6 15 0 24 -8 12 -10 12 -16 -3z"/>
<path d="M2087 2504 c-4 -4 -7 -14 -7 -23 0 -11 3 -12 11 -4 6 6 10 16 7 23
-2 6 -7 8 -11 4z"/>
<path d="M2685 2500 c-7 -12 2 -30 16 -30 5 0 9 9 9 20 0 21 -15 27 -25 10z"/>
<path d="M2804 2496 c-8 -22 3 -33 18 -18 9 9 9 15 0 24 -9 9 -13 7 -18 -6z"/>
<path d="M1790 2485 c0 -9 5 -15 11 -13 6 2 11 8 11 13 0 5 -5 11 -11 13 -6 2
-11 -4 -11 -13z"/>
<path d="M2510 2485 c0 -8 7 -15 15 -15 8 0 15 7 15 15 0 8 -7 15 -15 15 -8 0
-15 -7 -15 -15z"/>
<path d="M2580 2485 c0 -8 5 -15 10 -15 6 0 10 7 10 15 0 8 -4 15 -10 15 -5 0
-10 -7 -10 -15z"/>
<path d="M2630 2484 c0 -9 5 -14 12 -12 18 6 21 28 4 28 -9 0 -16 -7 -16 -16z"/>
<path d="M2740 2485 c0 -8 7 -15 15 -15 8 0 15 7 15 15 0 8 -7 15 -15 15 -8 0
-15 -7 -15 -15z"/>
<path d="M2853 2488 c2 -7 10 -13 17 -13 7 0 15 6 18 13 2 7 -5 12 -18 12 -13
0 -20 -5 -17 -12z"/>
<path d="M2920 2485 c0 -8 5 -15 10 -15 6 0 10 7 10 15 0 8 -4 15 -10 15 -5 0
-10 -7 -10 -15z"/>
<path d="M1855 2480 c3 -5 10 -10 16 -10 5 0 9 5 9 10 0 6 -7 10 -16 10 -8 0
-12 -4 -9 -10z"/>
<path d="M2028 2483 c7 -3 16 -2 19 1 4 3 -2 6 -13 5 -11 0 -14 -3 -6 -6z"/>
<path d="M2130 2420 c0 -19 3 -21 12 -12 9 9 9 15 0 24 -9 9 -12 7 -12 -12z"/>
<path d="M1790 2420 c0 -5 7 -10 15 -10 8 0 15 5 15 10 0 6 -7 10 -15 10 -8 0
-15 -4 -15 -10z"/>
<path d="M1855 2420 c-3 -5 1 -10 9 -10 9 0 16 5 16 10 0 6 -4 10 -9 10 -6 0
-13 -4 -16 -10z"/>
<path d="M1910 2414 c0 -9 5 -14 12 -12 18 6 21 28 4 28 -9 0 -16 -7 -16 -16z"/>
<path d="M1960 2414 c0 -9 5 -14 12 -12 18 6 21 28 4 28 -9 0 -16 -7 -16 -16z"/>
<path d="M2080 2415 c0 -8 5 -15 10 -15 6 0 10 7 10 15 0 8 -4 15 -10 15 -5 0
-10 -7 -10 -15z"/>
<path d="M2180 2415 c0 -9 5 -15 11 -13 6 2 11 8 11 13 0 5 -5 11 -11 13 -6 2
-11 -4 -11 -13z"/>
<path d="M2580 2420 c0 -5 7 -10 16 -10 8 0 12 5 9 10 -3 6 -10 10 -16 10 -5
0 -9 -4 -9 -10z"/>
<path d="M2635 2419 c-4 -6 -5 -13 -2 -16 7 -7 27 6 27 18 0 12 -17 12 -25 -2z"/>
<path d="M2685 2421 c-7 -12 12 -24 25 -16 11 7 4 25 -10 25 -5 0 -11 -4 -15
-9z"/>
<path d="M2740 2415 c0 -8 7 -15 15 -15 8 0 15 7 15 15 0 8 -7 15 -15 15 -8 0
-15 -7 -15 -15z"/>
<path d="M2800 2414 c0 -9 5 -14 12 -12 18 6 21 28 4 28 -9 0 -16 -7 -16 -16z"/>
<path d="M2853 2418 c2 -7 10 -13 17 -13 7 0 15 6 18 13 2 7 -5 12 -18 12 -13
0 -20 -5 -17 -12z"/>
<path d="M2920 2420 c0 -5 5 -10 10 -10 6 0 10 5 10 10 0 6 -4 10 -10 10 -5 0
-10 -4 -10 -10z"/>
<path d="M2028 2413 c7 -3 16 -2 19 1 4 3 -2 6 -13 5 -11 0 -14 -3 -6 -6z"/>
<path d="M2515 2410 c3 -5 10 -10 16 -10 5 0 9 5 9 10 0 6 -7 10 -16 10 -8 0
-12 -4 -9 -10z"/>
<path d="M2860 2370 c-12 -7 -12 -12 -2 -22 9 -9 15 -9 24 0 16 16 -2 34 -22
22z"/>
<path d="M1790 2355 c0 -8 5 -15 10 -15 6 0 10 7 10 15 0 8 -4 15 -10 15 -5 0
-10 -7 -10 -15z"/>
<path d="M1857 2363 c-12 -11 -8 -23 8 -23 8 0 15 7 15 15 0 16 -12 20 -23 8z"/>
<path d="M1910 2355 c0 -8 7 -15 15 -15 8 0 15 7 15 15 0 8 -7 15 -15 15 -8 0
-15 -7 -15 -15z"/>
<path d="M1960 2355 c0 -9 5 -15 11 -13 6 2 11 8 11 13 0 5 -5 11 -11 13 -6 2
-11 -4 -11 -13z"/>
<path d="M2025 2360 c-3 -5 1 -10 10 -10 9 0 13 5 10 10 -3 6 -8 10 -10 10 -2
0 -7 -4 -10 -10z"/>
<path d="M2075 2361 c-6 -11 9 -23 19 -14 9 9 7 23 -3 23 -6 0 -12 -4 -16 -9z"/>
<path d="M2131 2354 c0 -11 3 -14 6 -6 3 7 2 16 -1 19 -3 4 -6 -2 -5 -13z"/>
<path d="M2172 2359 c2 -6 8 -10 13 -10 5 0 11 4 13 10 2 6 -4 11 -13 11 -9 0
-15 -5 -13 -11z"/>
<path d="M2235 2360 c3 -5 11 -10 16 -10 6 0 7 5 4 10 -3 6 -11 10 -16 10 -6
0 -7 -4 -4 -10z"/>
<path d="M2573 2358 c2 -7 10 -13 17 -13 7 0 15 6 18 13 2 7 -5 12 -18 12 -13
0 -20 -5 -17 -12z"/>
<path d="M2630 2355 c0 -8 7 -15 15 -15 8 0 15 7 15 15 0 8 -7 15 -15 15 -8 0
-15 -7 -15 -15z"/>
<path d="M2687 2363 c-12 -11 -8 -23 8 -23 8 0 15 7 15 15 0 16 -12 20 -23 8z"/>
<path d="M2735 2360 c-8 -12 20 -24 35 -15 6 3 8 11 5 16 -8 12 -32 12 -40 -1z"/>
<path d="M2797 2363 c-13 -12 -7 -23 13 -23 11 0 20 7 20 15 0 15 -21 21 -33
8z"/>
<path d="M2913 2358 c2 -7 10 -13 17 -13 7 0 15 6 18 13 2 7 -5 12 -18 12 -13
0 -20 -5 -17 -12z"/>
<path d="M1790 2296 c0 -9 7 -16 16 -16 9 0 14 5 12 12 -6 18 -28 21 -28 4z"/>
<path d="M1916 2303 c-11 -11 -6 -23 9 -23 8 0 15 4 15 9 0 13 -16 22 -24 14z"/>
<path d="M2080 2295 c0 -9 5 -15 11 -13 6 2 11 8 11 13 0 5 -5 11 -11 13 -6 2
-11 -4 -11 -13z"/>
<path d="M2124 2296 c-8 -22 3 -33 18 -18 9 9 9 15 0 24 -9 9 -13 7 -18 -6z"/>
<path d="M2643 2303 c-16 -6 -17 -33 -3 -33 11 0 26 28 19 34 -2 2 -10 1 -16
-1z"/>
<path d="M2803 2295 c-3 -9 -3 -18 0 -21 9 -9 27 6 27 22 0 19 -19 18 -27 -1z"/>
<path d="M1840 2290 c0 -5 6 -10 14 -10 8 0 18 5 21 10 3 6 -3 10 -14 10 -12
0 -21 -4 -21 -10z"/>
<path d="M1960 2290 c0 -5 7 -10 15 -10 8 0 15 5 15 10 0 6 -7 10 -15 10 -8 0
-15 -4 -15 -10z"/>
<path d="M2030 2289 c0 -5 5 -7 10 -4 6 3 10 8 10 11 0 2 -4 4 -10 4 -5 0 -10
-5 -10 -11z"/>
<path d="M2175 2290 c3 -5 10 -10 16 -10 5 0 9 5 9 10 0 6 -7 10 -16 10 -8 0
-12 -4 -9 -10z"/>
<path d="M2420 2265 l0 -35 50 -2 c28 -1 60 -2 73 -2 37 -1 27 28 -13 35 l-35
6 40 3 c22 2 46 4 52 4 7 1 14 6 15 11 2 6 -35 11 -89 13 l-93 3 0 -36z"/>
<path d="M2680 2285 c0 -8 7 -15 15 -15 8 0 15 7 15 15 0 8 -7 15 -15 15 -8 0
-15 -7 -15 -15z"/>
<path d="M2730 2290 c0 -5 9 -10 20 -10 11 0 20 5 20 10 0 6 -9 10 -20 10 -11
0 -20 -4 -20 -10z"/>
<path d="M2850 2292 c0 -14 11 -21 26 -15 21 8 17 23 -6 23 -11 0 -20 -4 -20
-8z"/>
<path d="M2905 2290 c-3 -5 3 -10 14 -10 12 0 21 5 21 10 0 6 -6 10 -14 10 -8
0 -18 -4 -21 -10z"/>
<path d="M2124 2246 c-8 -22 3 -33 18 -18 9 9 9 15 0 24 -9 9 -13 7 -18 -6z"/>
<path d="M2636 2253 c-12 -12 -6 -33 9 -33 8 0 15 6 15 14 0 17 -14 28 -24 19z"/>
<path d="M2693 2253 c-18 -6 -16 -33 1 -33 19 0 31 19 20 30 -5 4 -15 5 -21 3z"/>
<path d="M1790 2235 c0 -9 5 -15 11 -13 6 2 11 8 11 13 0 5 -5 11 -11 13 -6 2
-11 -4 -11 -13z"/>
<path d="M1857 2244 c-8 -8 1 -24 14 -24 5 0 9 7 9 15 0 15 -12 20 -23 9z"/>
<path d="M1910 2234 c0 -9 5 -14 12 -12 18 6 21 28 4 28 -9 0 -16 -7 -16 -16z"/>
<path d="M1960 2234 c0 -9 5 -14 12 -12 18 6 21 28 4 28 -9 0 -16 -7 -16 -16z"/>
<path d="M2080 2235 c0 -8 5 -15 10 -15 6 0 10 7 10 15 0 8 -4 15 -10 15 -5 0
-10 -7 -10 -15z"/>
<path d="M2582 2238 c6 -18 28 -21 28 -4 0 9 -7 16 -16 16 -9 0 -14 -5 -12
-12z"/>
<path d="M2740 2234 c0 -9 7 -14 17 -12 25 5 28 28 4 28 -12 0 -21 -6 -21 -16z"/>
<path d="M2790 2235 c0 -8 9 -15 20 -15 11 0 20 7 20 15 0 8 -9 15 -20 15 -11
0 -20 -7 -20 -15z"/>
<path d="M2852 2238 c7 -19 38 -22 38 -4 0 10 -9 16 -21 16 -12 0 -19 -5 -17
-12z"/>
<path d="M2920 2234 c0 -9 5 -14 12 -12 18 6 21 28 4 28 -9 0 -16 -7 -16 -16z"/>
<path d="M2178 2233 c7 -3 16 -2 19 1 4 3 -2 6 -13 5 -11 0 -14 -3 -6 -6z"/>
<path d="M2461 2191 c-17 -11 -7 -41 14 -41 9 0 15 9 15 25 0 27 -6 30 -29 16z"/>
<path d="M1795 2177 c-4 -10 -5 -21 -1 -24 10 -10 18 4 13 24 -4 17 -4 17 -12
0z"/>
<path d="M2127 2183 c-2 -4 -5 -29 -5 -55 -1 -35 3 -48 13 -48 10 0 13 13 12
49 -2 48 -10 71 -20 54z"/>
<path d="M1855 2169 c-10 -15 3 -25 16 -12 7 7 7 13 1 17 -6 3 -14 1 -17 -5z"/>
<path d="M1910 2164 c0 -9 5 -14 12 -12 18 6 21 28 4 28 -9 0 -16 -7 -16 -16z"/>
<path d="M1960 2165 c0 -8 7 -15 15 -15 8 0 15 7 15 15 0 8 -7 15 -15 15 -8 0
-15 -7 -15 -15z"/>
<path d="M2080 2165 c0 -9 5 -15 11 -13 6 2 11 8 11 13 0 5 -5 11 -11 13 -6 2
-11 -4 -11 -13z"/>
<path d="M2170 2165 c0 -10 7 -15 18 -13 21 4 19 22 -2 26 -10 2 -16 -3 -16
-13z"/>
<path d="M2517 2174 c-8 -8 1 -24 14 -24 5 0 9 7 9 15 0 15 -12 20 -23 9z"/>
<path d="M2580 2164 c0 -9 5 -14 12 -12 18 6 21 28 4 28 -9 0 -16 -7 -16 -16z"/>
<path d="M2630 2165 c0 -8 7 -15 15 -15 8 0 15 7 15 15 0 8 -7 15 -15 15 -8 0
-15 -7 -15 -15z"/>
<path d="M2680 2165 c0 -8 7 -15 15 -15 8 0 15 7 15 15 0 8 -7 15 -15 15 -8 0
-15 -7 -15 -15z"/>
<path d="M2737 2173 c-13 -12 -7 -23 13 -23 11 0 20 7 20 15 0 15 -21 21 -33
8z"/>
<path d="M2800 2165 c0 -8 7 -15 15 -15 8 0 15 7 15 15 0 8 -7 15 -15 15 -8 0
-15 -7 -15 -15z"/>
<path d="M2850 2165 c0 -8 9 -15 20 -15 11 0 20 7 20 15 0 8 -9 15 -20 15 -11
0 -20 -7 -20 -15z"/>
<path d="M2921 2171 c-10 -6 -10 -10 -1 -16 13 -8 24 -1 19 14 -3 6 -10 7 -18
2z"/>
<path d="M2030 2159 c0 -5 5 -7 10 -4 6 3 10 8 10 11 0 2 -4 4 -10 4 -5 0 -10
-5 -10 -11z"/>
<path d="M2453 2123 c-28 -5 -29 -19 -3 -35 23 -15 26 -36 5 -44 -11 -5 -12
-10 -2 -25 9 -14 9 -21 -1 -31 -17 -17 -15 -38 3 -38 21 0 19 -36 -2 -44 -15
-6 -15 -8 -3 -16 37 -24 40 -14 39 115 -1 69 -4 124 -8 124 -3 -1 -16 -4 -28
-6z"/>
<path d="M2630 2115 c-9 -11 -10 -19 -2 -27 14 -14 32 -1 32 23 0 23 -13 25
-30 4z"/>
<path d="M2687 2123 c-13 -12 -7 -33 8 -33 8 0 15 9 15 20 0 20 -11 26 -23 13z"/>
<path d="M1784 2109 c-3 -6 -2 -15 4 -21 13 -13 32 -2 32 18 0 16 -26 19 -36
3z"/>
<path d="M1852 2104 c4 -21 22 -23 26 -1 2 10 -3 17 -13 17 -10 0 -15 -6 -13
-16z"/>
<path d="M1907 2113 c-13 -12 -7 -23 13 -23 11 0 20 7 20 15 0 15 -21 21 -33
8z"/>
<path d="M1962 2104 c4 -21 22 -23 26 -1 2 10 -3 17 -13 17 -10 0 -15 -6 -13
-16z"/>
<path d="M2026 2113 c-11 -11 -6 -23 9 -23 8 0 15 4 15 9 0 13 -16 22 -24 14z"/>
<path d="M2070 2105 c0 -10 7 -15 18 -13 21 4 19 22 -2 26 -10 2 -16 -3 -16
-13z"/>
<path d="M2175 2110 c-9 -15 -1 -23 21 -18 15 3 16 4 1 16 -11 9 -17 10 -22 2z"/>
<path d="M2235 2111 c-7 -12 12 -24 25 -16 11 7 4 25 -10 25 -5 0 -11 -4 -15
-9z"/>
<path d="M2515 2110 c-8 -13 4 -32 16 -25 12 8 12 35 0 35 -6 0 -13 -4 -16
-10z"/>
<path d="M2570 2105 c0 -8 9 -15 20 -15 11 0 20 7 20 15 0 8 -9 15 -20 15 -11
0 -20 -7 -20 -15z"/>
<path d="M2742 2103 c5 -25 28 -28 28 -4 0 12 -6 21 -16 21 -9 0 -14 -7 -12
-17z"/>
<path d="M2792 2103 c2 -10 10 -18 18 -18 8 0 16 8 18 18 2 12 -3 17 -18 17
-15 0 -20 -5 -18 -17z"/>
<path d="M1790 2035 c0 -8 7 -15 15 -15 8 0 15 7 15 15 0 8 -7 15 -15 15 -8 0
-15 -7 -15 -15z"/>
<path d="M1913 2035 c-3 -9 -3 -18 0 -21 9 -9 27 6 27 22 0 19 -19 18 -27 -1z"/>
<path d="M1963 2035 c-3 -9 -3 -18 0 -21 9 -9 27 6 27 22 0 19 -19 18 -27 -1z"/>
<path d="M2120 2030 c0 -11 7 -20 15 -20 8 0 15 9 15 20 0 11 -7 20 -15 20 -8
0 -15 -9 -15 -20z"/>
<path d="M2183 2043 c-20 -8 -15 -23 7 -23 11 0 20 7 20 15 0 15 -6 17 -27 8z"/>
<path d="M2521 2040 c-14 -8 -7 -30 9 -30 11 0 21 28 12 34 -5 3 -14 1 -21 -4z"/>
<path d="M2633 2043 c-21 -8 -15 -33 7 -33 13 0 20 7 20 20 0 20 -5 23 -27 13z"/>
<path d="M2687 2043 c-13 -12 -7 -33 8 -33 8 0 15 9 15 20 0 20 -11 26 -23 13z"/>
<path d="M2743 2043 c-18 -6 -16 -33 1 -33 19 0 31 19 20 30 -5 4 -15 5 -21 3z"/>
<path d="M2803 2043 c-7 -2 -13 -11 -13 -19 0 -21 38 -17 50 6 9 17 8 20 -7
19 -10 0 -24 -3 -30 -6z"/>
<path d="M1850 2030 c0 -5 7 -10 15 -10 8 0 15 5 15 10 0 6 -7 10 -15 10 -8 0
-15 -4 -15 -10z"/>
<path d="M2020 2030 c0 -5 7 -10 15 -10 8 0 15 5 15 10 0 6 -7 10 -15 10 -8 0
-15 -4 -15 -10z"/>
<path d="M2070 2031 c0 -18 18 -21 30 -6 10 13 9 15 -9 15 -11 0 -21 -4 -21
-9z"/>
<path d="M2240 2030 c0 -5 7 -10 15 -10 8 0 15 5 15 10 0 6 -7 10 -15 10 -8 0
-15 -4 -15 -10z"/>
<path d="M2570 2031 c0 -18 18 -21 30 -6 10 13 9 15 -9 15 -11 0 -21 -4 -21
-9z"/>
<path d="M1907 1976 c-7 -16 1 -26 20 -26 7 0 13 9 13 20 0 23 -25 27 -33 6z"/>
<path d="M2517 1983 c-14 -13 -6 -33 13 -33 13 0 20 7 20 20 0 19 -20 27 -33
13z"/>
<path d="M2560 1981 c0 -29 79 -51 99 -27 7 8 10 20 6 26 -8 12 -105 14 -105
1z"/>
<path d="M1776 1971 c-7 -10 23 -20 42 -14 6 3 12 9 12 14 0 12 -47 12 -54 0z"/>
<path d="M1852 1968 c5 -15 28 -18 29 -3 0 6 -7 12 -17 13 -10 3 -15 -1 -12
-10z"/>
<path d="M1960 1964 c0 -9 7 -14 17 -12 25 5 28 28 4 28 -12 0 -21 -6 -21 -16z"/>
<path d="M2022 1968 c5 -15 28 -18 29 -3 0 6 -7 12 -17 13 -10 3 -15 -1 -12
-10z"/>
<path d="M2073 1968 c2 -7 10 -13 17 -13 7 0 15 6 18 13 2 7 -5 12 -18 12 -13
0 -20 -5 -17 -12z"/>
<path d="M2120 1960 c0 -24 16 -26 28 -4 7 13 13 14 31 5 22 -12 41 -7 41 10
0 5 -22 9 -50 9 -43 0 -50 -3 -50 -20z"/>
<path d="M2242 1971 c4 -13 18 -16 19 -4 0 4 -5 9 -11 12 -7 2 -11 -2 -8 -8z"/>
<path d="M2682 1963 c2 -10 10 -18 18 -18 8 0 16 8 18 18 2 12 -3 17 -18 17
-15 0 -20 -5 -18 -17z"/>
<path d="M2124 1916 c-8 -21 3 -49 16 -41 5 3 10 15 10 25 0 25 -18 36 -26 16z"/>
<path d="M1782 1908 c7 -19 38 -22 38 -4 0 10 -9 16 -21 16 -12 0 -19 -5 -17
-12z"/>
<path d="M1844 1909 c-8 -14 18 -31 30 -19 9 9 0 30 -14 30 -5 0 -12 -5 -16
-11z"/>
<path d="M1914 1906 c-8 -22 3 -33 18 -18 9 9 9 15 0 24 -9 9 -13 7 -18 -6z"/>
<path d="M1967 1913 c-13 -12 -7 -33 8 -33 8 0 15 9 15 20 0 20 -11 26 -23 13z"/>
<path d="M2073 1905 c-3 -9 -3 -18 0 -21 9 -9 27 6 27 22 0 19 -19 18 -27 -1z"/>
<path d="M2182 1903 c5 -25 28 -28 28 -4 0 12 -6 21 -16 21 -9 0 -14 -7 -12
-17z"/>
<path d="M2236 1913 c-11 -11 -6 -23 9 -23 8 0 15 4 15 9 0 13 -16 22 -24 14z"/>
<path d="M2517 1913 c-13 -12 -7 -33 8 -33 8 0 15 9 15 20 0 20 -11 26 -23 13z"/>
<path d="M2020 1900 c0 -5 7 -10 15 -10 8 0 15 5 15 10 0 6 -7 10 -15 10 -8 0
-15 -4 -15 -10z"/>
<path d="M1780 1836 c0 -14 29 -31 38 -22 2 3 2 12 -1 21 -8 19 -37 20 -37 1z"/>
<path d="M1842 1838 c7 -19 38 -22 38 -4 0 10 -9 16 -21 16 -12 0 -19 -5 -17
-12z"/>
<path d="M1905 1840 c-8 -14 3 -30 21 -30 8 0 14 9 14 20 0 21 -24 28 -35 10z"/>
<path d="M1960 1826 c0 -31 -10 -37 -63 -41 -23 -2 -45 -4 -49 -4 -5 -1 -8
-10 -8 -21 0 -20 24 -28 34 -11 3 4 29 2 58 -5 71 -19 118 -18 118 1 0 23 28
18 36 -7 6 -19 7 -19 16 -5 5 10 18 17 28 17 16 0 19 7 18 50 0 37 -4 50 -15
50 -10 0 -14 -9 -11 -32 l3 -32 -50 2 c-27 2 -62 5 -77 8 -24 5 -26 8 -15 24
6 11 14 15 17 11 3 -5 15 -11 28 -15 17 -6 22 -3 22 11 0 14 -9 19 -45 21 -42
2 -45 0 -45 -22z m53 -63 c-13 -2 -35 -2 -50 0 -16 2 -5 4 22 4 28 0 40 -2 28
-4z"/>
<path d="M2072 1833 c2 -10 10 -18 18 -18 8 0 16 8 18 18 2 12 -3 17 -18 17
-15 0 -20 -5 -18 -17z"/>
<path d="M2174 1839 c-3 -6 -2 -15 4 -21 13 -13 32 -2 32 18 0 16 -26 19 -36
3z"/>
<path d="M2514 1835 c-3 -8 -3 -19 1 -25 11 -18 25 -11 25 15 0 27 -17 34 -26
10z"/>
<path d="M1791 1781 c-16 -10 -6 -31 15 -31 8 0 14 9 14 20 0 22 -7 25 -29 11z"/>
<path d="M1868 1713 c-16 -2 -28 -10 -28 -16 0 -16 252 -17 257 -1 3 8 -18 12
-59 13 -35 0 -81 3 -103 5 -22 2 -52 2 -67 -1z"/>
<path d="M2120 1695 c0 -8 7 -15 15 -15 8 0 15 7 15 15 0 8 -7 15 -15 15 -8 0
-15 -7 -15 -15z"/>
<path d="M1450 2490 c0 -5 5 -10 10 -10 6 0 10 5 10 10 0 6 -4 10 -10 10 -5 0
-10 -4 -10 -10z"/>
<path d="M1455 2420 c-3 -5 -1 -10 4 -10 6 0 11 5 11 10 0 6 -2 10 -4 10 -3 0
-8 -4 -11 -10z"/>
<path d="M1450 2360 c0 -5 5 -10 10 -10 6 0 10 5 10 10 0 6 -4 10 -10 10 -5 0
-10 -4 -10 -10z"/>
<path d="M1458 2293 c7 -3 16 -2 19 1 4 3 -2 6 -13 5 -11 0 -14 -3 -6 -6z"/>
<path d="M1450 2230 c0 -5 5 -10 10 -10 6 0 10 5 10 10 0 6 -4 10 -10 10 -5 0
-10 -4 -10 -10z"/>
<path d="M1457 2183 c-12 -12 -7 -33 8 -33 17 0 19 9 7 28 -5 7 -11 9 -15 5z"/>
<path d="M1500 2170 c0 -5 5 -10 10 -10 6 0 10 5 10 10 0 6 -4 10 -10 10 -5 0
-10 -4 -10 -10z"/>
<path d="M1450 2100 c0 -11 7 -20 15 -20 8 0 15 9 15 20 0 11 -7 20 -15 20 -8
0 -15 -9 -15 -20z"/>
<path d="M1495 2110 c-7 -12 2 -30 16 -30 12 0 12 27 0 35 -5 3 -12 1 -16 -5z"/>
<path d="M3788 1343 c7 -3 16 -2 19 1 4 3 -2 6 -13 5 -11 0 -14 -3 -6 -6z"/>
<path d="M2355 670 c-7 -12 105 -12 180 0 41 6 31 8 -62 9 -65 0 -114 -3 -118
-9z"/>
<path d="M1990 540 c77 -12 250 -22 190 -10 -25 4 -90 11 -145 14 -79 4 -88 3
-45 -4z"/>
<path d="M2050 490 c195 -23 430 -35 430 -21 0 7 -23 11 -57 11 -32 0 -125 7
-208 15 -82 8 -186 14 -230 14 -78 -1 -76 -2 65 -19z"/>
<path d="M1943 454 c2 -2 75 -15 163 -29 208 -33 554 -34 554 -2 0 5 -9 7 -20
4 -11 -3 -18 -2 -15 3 4 7 -115 13 -533 24 -84 2 -151 2 -149 0z"/>
<path d="M2675 398 c-33 -5 -210 -8 -394 -6 -292 3 -327 2 -280 -9 30 -8 108
-17 174 -22 l120 -8 -110 -2 c-60 0 -128 -4 -150 -8 -39 -6 -38 -7 50 -30 128
-34 363 -42 569 -18 208 23 260 36 131 31 -60 -2 -88 -1 -70 4 17 4 47 8 68 9
71 2 37 18 -55 26 -51 5 -86 10 -78 11 8 2 36 6 63 9 26 3 47 10 47 16 0 10
-2 10 -85 -3z"/>
<path d="M2775 4843 c-47 -6 -85 -24 -96 -45 -15 -28 -3 -34 34 -19 46 18 183
25 250 12 32 -6 85 -23 118 -37 63 -29 77 -28 60 4 -32 59 -223 104 -366 85z"/>
<path d="M945 4250 c-37 -41 -29 -240 9 -240 10 0 13 30 12 130 0 71 -1 130
-2 130 0 0 -9 -9 -19 -20z"/>
</g>
</svg>
